<?xml version="1.0" encoding="UTF-8" standalone="no"?>
<!-- Created with Inkscape (http://www.inkscape.org/) -->

<svg
   width="14.466482mm"
   height="14.573188mm"
   viewBox="0 0 14.466482 14.573188"
   version="1.1"
   id="svg16017"
   inkscape:version="1.1.1 (3bf5ae0d25, 2021-09-20)"
   sodipodi:docname="kokopelli-logo-white.svg"
   xmlns:inkscape="http://www.inkscape.org/namespaces/inkscape"
   xmlns:sodipodi="http://sodipodi.sourceforge.net/DTD/sodipodi-0.dtd"
   xmlns="http://www.w3.org/2000/svg"
   xmlns:svg="http://www.w3.org/2000/svg">
  <sodipodi:namedview
     id="namedview16019"
     pagecolor="#ffffff"
     bordercolor="#666666"
     borderopacity="1.0"
     inkscape:pageshadow="2"
     inkscape:pageopacity="0.0"
     inkscape:pagecheckerboard="0"
     inkscape:document-units="mm"
     showgrid="false"
     inkscape:snap-global="false"
     inkscape:zoom="6.39404"
     inkscape:cx="32.686689"
     inkscape:cy="38.39513"
     inkscape:window-width="1920"
     inkscape:window-height="1080"
     inkscape:window-x="0"
     inkscape:window-y="0"
     inkscape:window-maximized="1"
     inkscape:current-layer="g292" />
  <defs
     id="defs16014" />
  <g
     inkscape:label="Layer 1"
     inkscape:groupmode="layer"
     id="layer1"
     transform="translate(-66.34986,-50.378517)">
    <g
       transform="matrix(-0.01604007,0.01022444,0.01036334,0.0157686,112.63082,52.456106)"
       fill="#000000"
       stroke="none"
       id="g292"
       style="display:inline;fill:#000000;fill-opacity:1;stroke-width:1.86217">
      <path
         d="m -296.94594,5144.8347 c -17.32934,10.1005 -43.70366,20.741 -58.4556,23.2802 -15.54164,3.6918 -26.95562,7.6901 -26.37432,10.6405 0.58134,2.9503 21.77165,17.6058 46.10614,32.7367 27.86615,17.5735 55.70302,45.3202 69.97995,71.3337 l 24.45529,41.5473 -39.66361,51.567 c -21.70907,29.157 -45.62269,72.9289 -51.98398,97.4106 -13.31842,51.0995 -8.7407,100.1356 10.92852,96.7501 5.90077,-1.0157 4.90272,4.2402 -3.76927,11.8337 -13.00791,11.3903 -13.23094,20.58 -1.72522,53.1713 18.53988,47.6497 64.55837,110.906 75.79321,100.8377 3.35255,-3.6276 13.48301,-39.943 20.87148,-79.8537 13.3914,-76.5325 21.28823,-88.0599 36.53404,-57.1291 5.46948,12.2771 0.47923,38.5565 -13.97275,73.5821 -34.63996,82.2235 -41.32634,151.501 -22.32173,242.7938 10.09083,46.0534 26.85763,95.0251 40.55318,118.0881 42.07004,69.02 116.192195,135.5734 189.22473436,170.7932 l 68.71102164,33.93 17.275211,77.3549 c 37.442333,174.5485 151.759303,347.0501 310.061223,469.2745 l 55.12181,42.3699 -21.70907,29.157 c -36.90704,50.0756 -88.53674,92.5173 -137.15767,114.1046 -25.19704,11.4548 -50.0066,24.8764 -54.14876,29.6566 -8.88043,11.6967 41.56578,107.7458 77.82261,147.2618 30.96649,33.309 112.7918,87.3515 136.96166,91.3259 22.99263,3.1601 -20.08187,78.7009 -63.23336,112.5655 -20.48813,14.7114 -31.93128,28.8828 -24.6595,29.6649 30.45817,4.9255 123.97052,-108.7844 117.38216,-142.2222 -1.16264,-5.9007 -21.96541,-18.5891 -46.12064,-27.65 -65.59608,-23.2811 -137.93054,-96.2432 -170.34522,-173.026 -12.50364,-27.3355 -10.92429,-29.641 27.45989,-46.4159 65.35447,-29.5517 137.50147,-96.8779 169.52028,-156.2803 8.89493,-16.7833 1.0564,-25.6023 -67.99848,-76.7588 C 252.14836,6651.8075 143.12155,6485.513 99.79303,6306.8936 L 77.629811,6220.2118 36.397356,6201.8885 C -161.33073,6116.9546 -262.02923,5925.84 -210.76619,5737.0401 c 10.13055,-36.3154 27.54741,-76.9355 38.20091,-89.9541 11.83073,-12.2045 20.12977,-26.8516 20.33807,-30.9547 -0.96887,-4.9174 9.10333,-20.8864 23.30315,-36.5492 l 24.06357,-27.5286 14.872728,23.8773 c 13.308056,21.0961 12.697492,28.3189 -4.854743,47.6091 -34.121235,38.4112 -55.438635,136.6443 -42.843255,200.5693 14.33932,72.7762 73.29287,150.0751 141.2142833,185.1578 67.9214127,35.0826 81.1084597,29.7624 91.5203867,-36.0891 l 9.59292,-54.5256 28.18487,112.0826 c 33.04388,131.5824 68.60268,208.8408 136.5574,300.8594 64.03541,87.6092 198.62802,182.3933 295.27816,208.4638 l 66.59414,18.0252 24.59075,62.8773 c 13.07048,35.3724 32.89378,115.3392 43.71609,180.5863 l 18.93159,116.7257 42.10968,-13.3489 c 42.10962,-13.349 116.95491,-61.8202 151.46358,-98.2644 17.55233,-19.2902 18.72965,-18.476 41.45549,9.1336 12.33909,16.1788 34.23152,60.201 48.47922,96.3876 24.7845,63.8607 31.6687,62.6758 14.9457,-1.5556 -10.8805,-44.9008 -36.49848,-92.3489 -65.11051,-124.0295 l -27.04736,-28.8994 -25.44916,30.8175 c -34.32954,42.5143 -85.15492,78.7166 -128.84399,94.371 l -36.20894,12.3333 -14.28102,-93.1226 c -14.1018,-87.0526 -59.87234,-236.7808 -77.71004,-255.0636 -4.90273,-4.2402 -42.0222,-17.1706 -82.09202,-29.5932 -133.96342,-39.9844 -257.12738,-143.8532 -333.3999,-283.2473 -34.81282,-63.1514 -47.88331,-98.5239 -75.65147,-218.8126 -29.31833,-128.1565 -31.62907,-145.0446 -18.03973,-153.4846 20.08596,-11.5918 21.26315,-10.7776 56.86571,51.2211 34.82744,58.0647 74.17422,185.5119 67.79838,215.0801 -6.36128,24.4817 12.98705,133.0011 21.83822,131.4776 3.93385,-0.6771 8.10527,-15.6304 7.56774,-33.8406 0.63964,-17.396 6.405,-39.7414 12.72244,-48.9634 6.12376,-10.2053 6.74882,-22.5147 0.87722,-31.6722 -5.67775,-8.1741 -20.89438,-49.2781 -34.33776,-91.7039 -19.86715,-64.7072 -59.13682,-150.4781 -97.68976,-211.9689 -17.80862,-28.4561 63.40617,32.8093 95.72911,73.0025 71.11351,87.4077 178.53583,333.2898 163.86092,377.5052 -4.96104,16.1061 -2.03987,25.7715 11.49113,37.6779 9.99917,9.4639 20.75891,27.9482 23.66554,42.7001 3.10044,15.7355 10.34299,26.6906 15.2603,25.8442 5.90078,-1.0157 7.12182,-15.4612 3.82761,-32.1801 -3.2942,-16.7188 -3.62329,-39.0321 0.33969,-49.8823 4.36519,-13.97 1.63774,-22.652 -10.13464,-30.7938 -8.43441,-6.6828 -22.71135,-32.6962 -31.87706,-58.5726 -29.04755,-85.4968 -107.22856,-244.8987 -145.60233,-300.3195 -21.14649,-29.9151 -56.2261,-68.617 -77.99765,-86.2227 -46.6874,-35.6871 -40.57822,-40.8059 17.34392,-15.1871 42.6035,20.121 84.77566,53.5348 152.01366,121.2732 93.89765,94.671 198.1133,293.3147 187.31401,357.1993 -3.79847,22.007 -1.08566,35.7754 5.97781,40.6606 7.06337,4.8851 15.06658,24.8607 19.1358,45.5134 4.06923,20.6527 12.28074,36.5252 17.19806,35.6788 5.90077,-1.0157 7.12181,-15.4612 4.02137,-31.1967 -3.29411,-16.7188 -2.63988,-39.2014 2.11285,-51.2043 6.1383,-15.2921 4.20055,-25.1267 -8.13854,-41.3055 -8.41983,-11.7694 -26.00546,-49.4151 -39.07594,-84.7875 -60.85167,-169.5024 -206.02894,-343.8099 -338.93597,-409.3965 -35.9276,-17.2028 -40.04059,-22.5957 -20.1922,-19.9112 54.04664,5.9495 152.0387,43.9909 206.98128,80.2907 108.70799,71.7854 243.90067,231.5425 251.96622,298.2808 2.89204,19.8385 12.47456,37.5087 24.24694,45.6505 15.49787,11.568 17.83779,18.2829 11.89316,34.5583 -6.928,16.4447 -4.58809,23.1597 11.10356,35.711 10.78891,8.3111 25.06584,34.3246 30.50611,56.7749 18.67529,68.9795 26.78057,53.349 15.61457,-29.1248 -7.69265,-59.6848 -13.34136,-78.032 -25.32205,-82.0707 -10.01385,-4.3774 -15.28957,-15.6711 -15.02278,-40.1206 -0.7168,-24.2802 -4.8152,-34.7597 -16.79598,-38.7985 -8.83657,-3.5631 -32.73973,-31.9868 -53.2903,-64.0382 -109.41429,-168.2613 -264.00534,-281.9732 -424.73057,-313.2839 -75.05772,-14.5349 -36.89644,-22.1202 49.76907,-10.6 169.00968,21.7502 321.09627,117.5905 442.53497,274.6308 71.29268,93.4777 115.68806,174.2992 107.55361,200.1028 -4.96108,16.1062 -1.44389,23.6354 16.02083,34.8647 11.77237,8.1418 27.43484,30.8663 35.24415,49.8585 8.00321,19.9756 18.18161,35.5096 24.08239,34.4939 7.8677,-1.3542 0.28128,-29.5361 -20.06101,-65.6905 -3.32325,-6.5457 -4.26295,-21.6362 -0.29997,-32.4864 4.36519,-13.97 0.2667,-24.4496 -16.79598,-38.7985 -12.35368,-11.0923 -37.80697,-47.3838 -56.58437,-80.7572 -133.20071,-237.3778 -360.02002,-392.5488 -580.78028,-398.2739 -76.66625,-2.0562 -83.50672,-16.131 -14.66438,-27.9804 126.86666,-21.8367 265.15151,19.4375 413.28966,121.0414 109.48301,75.7193 214.15499,183.788 210.52119,216.9516 -1.60852,12.4786 7.39261,27.1984 27.59949,42.023 16.6751,12.382 30.98112,28.2223 32.53129,36.09 1.55018,7.8677 8.21148,15.8726 15.87087,18.6214 8.83658,3.5631 8.46359,-3.4904 -2.28157,-27.0613 -7.61559,-18.0087 -15.79793,-44.0543 -17.91482,-59.959 -2.11692,-15.9047 -10.73056,-28.6575 -19.17956,-30.2537 -8.449,-1.5962 -37.26948,-29.1735 -64.70428,-60.0399 -176.15848,-202.5299 -415.70023,-308.7375 -617.3101,-274.0358 -27.53691,4.7398 -49.9482,4.53 -50.91708,-0.3873 -4.65056,-23.6031 71.70108,-48.9468 224.13782,-75.1846 139.65167,-24.0373 165.803,-25.4882 233.79734,-15.8384 90.98694,12.8099 187.78713,55.1237 202.43696,88.1906 6.84048,14.0748 18.80658,23.2001 30.99567,23.1358 12.18913,-0.064 29.26636,9.198 38.86341,21.7815 9.40338,11.6001 21.36948,20.7254 26.28679,19.879 11.80155,-2.0313 7.31554,-14.4777 -12.87663,-34.389 -9.9993,-9.4638 -21.74247,-27.7789 -26.22844,-40.2254 -4.87355,-14.4134 -15.85623,-23.7079 -28.04532,-23.6435 -11.20567,-0.1049 -37.32787,-8.8273 -57.74301,-19.5487 -65.37315,-32.471 -159.28134,-54.9461 -246.16975,-57.2765 -107.52667,-3.8621 -299.31641,34.2335 -365.08754,71.9914 -40.36578,22.2001 -45.08924,24.0299 -71.792782,12.3571 -17.673154,-7.1261 -40.278168,-8.3194 -62.31651,-1.4756 -24.9886902,7.3516 -37.3715412,6.4325 -45.791458,-5.3369 -6.66121,-8.0048 -58.70139,-96.6617 -115.03369,-196.7817 -107.00144,-186.9793 -140.19115,-267.696 -127.69164,-307.4696 8.53652,-28.9233 -2.07313,-31.1644 -41.45544,-9.1336 z m 21.65494,58.2984 7.36343,37.3716 -29.41632,-25.4412 c -31.96467,-28.0531 -33.30644,-40.0239 -3.80256,-45.1022 14.7519,-2.5391 20.0422,3.668 25.85545,33.1718 z m 32.6937,253.6606 c 11.37439,78.3708 1.32509,223.4715 -17.792,239.9805 -9.46164,8.7463 -29.83307,-17.235 -46.22689,-59.1531 -12.29532,-31.4386 -11.49104,-37.6779 12.36414,-61.1035 32.13967,-32.9859 31.40832,-52.1796 -1.26884,-37.4037 -26.18059,11.624 -32.43973,0.4995 -24.4407,-46.6339 5.9883,-31.5353 46.72289,-113.791 57.54094,-115.653 3.93385,-0.6771 13.07039,35.3724 19.82335,79.9667 z m 48.81478,-20.6039 c 10.3284,31.7772 20.01716,80.9503 20.71937,110.3171 l 3.38582,53.3085 -18.59827,-27.3033 c -18.79208,-28.2868 -49.88358,-155.1213 -44.49121,-184.5202 5.39242,-29.399 20.27982,-10.6083 38.98429,48.1979 z m 65.75027,106.6335 c 2.33982,6.715 -2.99415,15.7677 -11.26398,20.2415 -10.83268,6.9486 -13.76848,2.3699 -15.06658,-24.8607 -1.32728,-17.0574 -1.67105,-34.2842 -1.26893,-37.4038 0.61047,-7.2228 23.90316,28.4238 27.59949,42.023 z m 88.161504,106.8432 c 20.16299,30.0845 20.148402,35.171 8.273956,62.6353 -19.785587,44.0784 -20.26101,72.6308 -0.112608,107.8018 20.729832,38.1214 66.656705,64.7881 99.110932,59.202 12.785015,-2.2007 24.378217,-0.1288 25.347092,4.7885 3.487967,17.7022 -27.693333,127.8012 -36.544497,129.3248 -4.917314,0.8463 -32.008343,-12.7933 -59.8744853,-30.3669 -120.8824837,-76.8076 -154.7160637,-207.2374 -85.3588947,-330.0082 10.474273,-19.0888 21.529846,-35.2271 23.496772,-35.5657 1.966925,-0.3386 13.918529,13.8734 25.661733,32.1884 z m 62.543588,59.3951 c -14.4081249,19.7659 -17.8044382,38.6532 -12.184998,67.1735 12.982958,65.892 85.463282,87.9882 126.497886,38.219 28.80166,-34.4452 -30.15184,-111.744 -61.889353,-81.8777 -21.679941,18.9839 -12.528723,49.9468 15.783253,49.1409 12.18909,-0.064 21.24869,-5.691 20.08596,-11.5917 -1.35636,-6.8842 -8.82199,-8.6497 -15.914534,-3.3617 -8.269824,4.4739 -14.75194,2.5392 -16.689691,-7.2954 -5.231914,-26.5536 32.289675,-16.7428 40.665745,10.2864 17.92944,54.8723 -51.523466,73.9445 -84.994511,22.7639 -16.050043,-24.6914 -17.212641,-30.5922 -4.160877,-57.2423 20.963093,-43.264 64.831428,-52.8484 99.150468,-23.1669 35.49636,30.4956 38.74671,62.4742 12.67241,105.6012 -16.79176,28.3106 -29.20378,37.5648 -58.707624,42.643 -46.222796,7.956 -102.730142,-31.1249 -111.837598,-77.3476 -6.394553,-32.4543 27.9932955,-95.3148 55.530249,-100.0546 10.81809,-1.8621 10.207576,5.3608 -4.006785,26.11 z m 823.806028,-24.8623 c 0.96888,4.9173 -1.9961,10.5118 -7.89688,11.5275 -4.91731,0.8463 -10.8035,-3.2246 -11.77237,-8.1419 -1.16269,-5.9008 2.97956,-10.681 7.89687,-11.5274 5.90078,-1.0157 10.60978,2.241 11.77238,8.1418 z m -557.71925,472.2182 c 0.96888,4.9174 -1.9961,10.5118 -7.89687,11.5275 -4.91727,0.8463 -10.80355,-3.2247 -11.77243,-8.142 -1.16264,-5.9007 2.97965,-10.681 7.89693,-11.5273 5.90077,-1.0157 10.60968,2.241 11.77237,8.1418 z m 590.07744,-101.566 c 0.96888,4.9173 -1.9961,10.5118 -7.89688,11.5274 -4.91731,0.8464 -10.80346,-3.2246 -11.77233,-8.1419 -1.16264,-5.9007 2.97952,-10.6809 7.89683,-11.5273 5.90078,-1.0157 10.60978,2.241 11.77238,8.1418 z M 714.3363,6174.6793 c 3.91926,4.4095 0.95429,10.0039 -6.91341,11.3582 -8.85117,1.5235 -16.70433,-2.209 -17.67321,-7.1263 -1.16264,-5.9007 1.99619,-10.5117 6.91346,-11.358 5.90078,-1.0157 13.56008,1.7331 17.67316,7.1261 z m 31.41655,82.0386 c 1.55017,7.8677 -1.60853,12.4787 -8.0906,10.544 -5.49871,-2.1041 -11.77238,-8.1419 -12.93507,-14.0427 -0.96887,-4.9173 3.17338,-9.6975 8.09069,-10.5439 5.90078,-1.0157 11.19104,5.1915 12.93498,14.0426 z m -275.75707,45.4306 c 2.13161,10.8181 -15.77912,17.9681 -23.42393,10.1327 -3.91926,-4.4095 -0.95428,-10.0039 6.91342,-11.3582 8.85125,-1.5234 16.12294,-0.7414 16.51051,1.2255 z m 400.61303,-51.6689 c -1.98151,5.4251 -8.47817,8.577 -14.1706,5.4895 -5.49861,-2.104 -8.82199,-8.6497 -5.85701,-14.2441 1.98151,-5.4252 8.47817,-8.577 14.1706,-5.4895 5.49861,2.104 8.82199,8.6497 5.85701,14.2441 z m -258.93186,74.0558 c -1.98152,5.4251 -7.89697,11.5274 -13.79775,12.543 -4.91731,0.8464 -9.82004,-3.3938 -10.78891,-8.3111 -1.1626,-5.9008 4.94822,-11.0188 13.79774,-12.543 7.8677,-1.3543 12.57657,1.9025 10.78892,8.3111 z"
         id="path2-1"
         style="fill:#000000;fill-opacity:1;stroke-width:1.86217;stroke:#000000;stroke-opacity:1" />
      <path
         d="m 4150,4760 c 0,-5 5,-10 10,-10 6,0 10,5 10,10 0,6 -4,10 -10,10 -5,0 -10,-4 -10,-10 z"
         id="path4-2"
         style="fill:#000000;fill-opacity:1;stroke-width:1.86217;stroke:#000000;stroke-opacity:1" />
      <path
         d="m 4230,4750 c 0,-5 5,-10 10,-10 6,0 10,5 10,10 0,6 -4,10 -10,10 -5,0 -10,-4 -10,-10 z"
         id="path6-7"
         style="fill:#000000;fill-opacity:1;stroke-width:1.86217;stroke:#000000;stroke-opacity:1" />
      <path
         d="m 4085,4731 c -3,-5 -1,-12 5,-16 5,-3 10,1 10,9 0,18 -6,21 -15,7 z"
         id="path8-0"
         style="fill:#000000;fill-opacity:1;stroke-width:1.86217;stroke:#000000;stroke-opacity:1" />
      <path
         d="m 4138,4714 c -35,-19 -48,-43 -48,-91 1,-62 46,-103 115,-103 100,0 125,149 32,193 -43,21 -64,21 -99,1 z m 103,-23 23,-18 -31,4 c -44,7 -73,-12 -73,-46 0,-16 7,-34 15,-41 22,-18 50,-8 50,18 0,12 -4,21 -10,20 -5,-1 -9,-8 -7,-15 2,-7 -4,-13 -13,-13 -21,0 -20,47 3,58 55,29 99,-60 52,-103 -53,-48 -144,-3 -144,71 0,69 82,108 135,65 z"
         id="path10-9"
         style="fill:#000000;fill-opacity:1;stroke-width:1.86217;stroke:#000000;stroke-opacity:1" />
      <path
         d="m 4290,4699 c 0,-5 5,-7 10,-4 6,3 10,8 10,11 0,2 -4,4 -10,4 -5,0 -10,-5 -10,-11 z"
         id="path12-3"
         style="fill:#000000;fill-opacity:1;stroke-width:1.86217;stroke:#000000;stroke-opacity:1" />
      <path
         d="m 4040,4670 c 0,-5 5,-10 10,-10 6,0 10,5 10,10 0,6 -4,10 -10,10 -5,0 -10,-4 -10,-10 z"
         id="path14-6"
         style="fill:#000000;fill-opacity:1;stroke-width:1.86217;stroke:#000000;stroke-opacity:1" />
      <path
         d="m 1059,4605 c 81,-85 134,-223 123,-317 -5,-43 -24,-33 -57,30 -43,82 -128,163 -216,205 -79,38 -129,53 -129,39 0,-5 19,-15 43,-22 70,-21 131,-56 191,-111 49,-45 116,-137 116,-161 0,-16 -34,-7 -64,16 -47,36 -129,75 -193,91 -65,17 -193,20 -193,5 0,-6 31,-10 73,-10 105,0 213,-35 294,-96 l 32,-25 -19,-32 c -11,-17 -20,-40 -20,-50 0,-23 -42,-41 -184,-77 -162,-42 -194,-45 -239,-22 -20,11 -37,16 -37,11 0,-13 50,-132 60,-143 5,-5 22,7 39,27 32,35 70,55 210,107 l 80,29 22,-47 c 69,-142 234,-222 392,-189 l 68,14 23,-46 c 33,-64 80,-219 101,-327 17,-89 18,-92 47,-98 52,-10 119,-7 186,10 35,9 66,14 69,11 2,-3 6,-54 7,-113 l 3,-108 39,-14 c 45,-16 157,-12 193,7 32,18 19,26 -20,12 -35,-12 -129,-13 -169,-2 -24,7 -25,10 -30,123 -3,64 -8,119 -11,123 -3,3 -23,-2 -45,-11 -53,-23 -216,-32 -230,-13 -6,8 -16,44 -22,81 -18,100 -59,232 -97,316 -29,61 -38,73 -52,67 -10,-4 -46,-12 -79,-18 -134,-23 -265,39 -345,162 -45,70 -34,79 26,22 30,-29 72,-59 92,-68 49,-21 157,-20 206,0 l 39,17 -22,30 c -12,16 -37,42 -57,57 -19,15 -31,29 -26,30 19,7 162,-45 229,-82 83,-47 186,-149 236,-235 35,-59 67,-142 83,-214 6,-28 7,-29 57,-23 40,5 115,34 189,74 10,6 31,-86 38,-162 l 6,-70 52,-3 c 53,-3 129,23 154,54 18,22 -7,18 -41,-8 -20,-15 -49,-23 -88,-26 l -59,-4 -7,71 c -5,58 -29,156 -41,169 -2,2 -36,-12 -77,-32 -85,-41 -158,-60 -163,-43 -49,177 -94,257 -199,363 -95,95 -198,152 -326,181 -96,21 -103,38 -30,72 27,13 68,44 91,68 45,49 93,143 86,171 -3,15 -5,15 -12,-3 -31,-79 -57,-126 -94,-161 -42,-43 -123,-89 -129,-74 -2,5 12,28 31,52 70,92 85,227 37,335 -28,64 -35,48 -10,-26 24,-72 26,-139 5,-208 -17,-56 -73,-140 -85,-127 -4,5 -10,48 -12,95 -4,73 -10,97 -40,162 -22,45 -55,95 -82,122 -65,64 -79,56 -17,-10 z m 102,-374 c -29,-8 -46,-33 -38,-55 8,-20 43,-21 51,0 4,12 1,14 -14,9 -14,-5 -20,-2 -20,10 0,11 7,15 23,13 45,-6 27,-78 -20,-78 -19,0 -63,45 -63,64 0,26 30,46 68,45 31,-1 33,-2 13,-8 z m 59,-65 c 0,-39 -41,-79 -80,-78 -40,1 -80,36 -80,71 1,24 1,25 12,6 16,-31 39,-45 72,-45 34,0 66,25 66,52 0,10 2,18 5,18 3,0 5,-11 5,-24 z m -150,-66 c 40,-43 100,-43 140,0 l 28,30 56,-51 c 31,-28 56,-55 56,-59 0,-9 -78,-30 -113,-30 -54,0 -125,31 -172,74 -26,25 -44,49 -40,55 9,16 14,14 45,-19 z m -338,-74 c -20,-10 -49,-29 -63,-43 l -27,-24 -10,28 c -5,15 -13,35 -16,43 -5,13 7,15 74,15 h 79 z"
         id="path16-0"
         style="fill:#000000;fill-opacity:1;stroke-width:1.86217;stroke:#000000;stroke-opacity:1" />
      <path
         d="m 4320,4640 c 0,-5 5,-10 10,-10 6,0 10,5 10,10 0,6 -4,10 -10,10 -5,0 -10,-4 -10,-10 z"
         id="path18-6"
         style="fill:#000000;fill-opacity:1;stroke-width:1.86217;stroke:#000000;stroke-opacity:1" />
      <path
         d="m 4030,4600 c 0,-5 5,-10 11,-10 5,0 7,5 4,10 -3,6 -8,10 -11,10 -2,0 -4,-4 -4,-10 z"
         id="path20-2"
         style="fill:#000000;fill-opacity:1;stroke-width:1.86217;stroke:#000000;stroke-opacity:1" />
      <path
         d="m 4310,4560 c 0,-5 5,-10 10,-10 6,0 10,5 10,10 0,6 -4,10 -10,10 -5,0 -10,-4 -10,-10 z"
         id="path22-6"
         style="fill:#000000;fill-opacity:1;stroke-width:1.86217;stroke:#000000;stroke-opacity:1" />
      <path
         d="m 4050,4530 c 0,-5 5,-10 10,-10 6,0 10,5 10,10 0,6 -4,10 -10,10 -5,0 -10,-4 -10,-10 z"
         id="path24-1"
         style="fill:#000000;fill-opacity:1;stroke-width:1.86217;stroke:#000000;stroke-opacity:1" />
      <path
         d="m 156.49423,6346.958 c 34.25033,122.2235 142.72488,275.3944 253.35603,362.101 l 52.76731,40.7415 16.85015,-48.657 c 10.10128,-26.1423 33.22515,-68.7614 50.98592,-92.1548 18.55029,-24.5461 30.604,-45.9402 27.07231,-48.3828 -11.77237,-8.1418 -63.07294,56.613 -84.45279,108.0833 l -20.78409,49.3341 -44.52666,-35.0421 c -100.42353,-81.3459 -184.81579,-200.023 -230.65927,-324.3182 -28.67446,-78.4434 -42.41386,-86.2467 -20.60891,-11.705 z"
         id="path26-8"
         style="fill:#000000;fill-opacity:1;stroke-width:1.86217;stroke:#000000;stroke-opacity:1" />
      <path
         d="m 1955,4500 c 4,-6 11,-8 16,-5 14,9 11,15 -7,15 -8,0 -12,-5 -9,-10 z"
         id="path28-7"
         style="fill:#000000;fill-opacity:1;stroke-width:1.86217;stroke:#000000;stroke-opacity:1" />
      <path
         d="m 4260,4500 c 0,-5 5,-10 10,-10 6,0 10,5 10,10 0,6 -4,10 -10,10 -5,0 -10,-4 -10,-10 z"
         id="path30-9"
         style="fill:#000000;fill-opacity:1;stroke-width:1.86217;stroke:#000000;stroke-opacity:1" />
      <path
         d="m 2030,4490 c 0,-5 5,-10 10,-10 6,0 10,5 10,10 0,6 -4,10 -10,10 -5,0 -10,-4 -10,-10 z"
         id="path32-2"
         style="fill:#000000;fill-opacity:1;stroke-width:1.86217;stroke:#000000;stroke-opacity:1" />
      <path
         d="m 4120,4484 c 0,-8 5,-12 10,-9 6,4 8,11 5,16 -9,14 -15,11 -15,-7 z"
         id="path34-0"
         style="fill:#000000;fill-opacity:1;stroke-width:1.86217;stroke:#000000;stroke-opacity:1" />
      <path
         d="m 4190,4480 c 0,-5 5,-10 10,-10 6,0 10,5 10,10 0,6 -4,10 -10,10 -5,0 -10,-4 -10,-10 z"
         id="path36-2"
         style="fill:#000000;fill-opacity:1;stroke-width:1.86217;stroke:#000000;stroke-opacity:1" />
      <path
         d="m 1890,4470 c 0,-5 5,-10 10,-10 6,0 10,5 10,10 0,6 -4,10 -10,10 -5,0 -10,-4 -10,-10 z"
         id="path38-3"
         style="fill:#000000;fill-opacity:1;stroke-width:1.86217;stroke:#000000;stroke-opacity:1" />
      <path
         d="m 1938,4453 c -58,-37 -65,-108 -14,-159 53,-53 129,-46 161,16 23,45 19,85 -12,120 -35,39 -95,49 -135,23 z m 97,-15 c 35,-16 31,-25 -8,-20 -56,6 -88,-46 -51,-83 9,-9 24,-15 33,-13 20,4 27,36 11,52 -9,8 -11,6 -5,-12 6,-20 4,-23 -12,-20 -27,5 -29,44 -3,58 52,28 95,-56 53,-102 -26,-28 -88,-24 -118,8 -68,73 8,174 100,132 z"
         id="path40-7"
         style="fill:#000000;fill-opacity:1;stroke-width:1.86217;stroke:#000000;stroke-opacity:1" />
      <path
         d="m 2095,4450 c -3,-5 -1,-10 4,-10 6,0 11,5 11,10 0,6 -2,10 -4,10 -3,0 -8,-4 -11,-10 z"
         id="path42-5"
         style="fill:#000000;fill-opacity:1;stroke-width:1.86217;stroke:#000000;stroke-opacity:1" />
      <path
         d="m 3610,4433 c -41,-15 -90,-82 -90,-123 0,-32 27,-83 51,-98 33,-21 33,-7 -1,26 -36,36 -40,81 -10,129 27,44 54,56 116,51 52,-4 71,3 38,16 -19,7 -83,7 -104,-1 z"
         id="path44-9"
         style="fill:#000000;fill-opacity:1;stroke-width:1.86217;stroke:#000000;stroke-opacity:1" />
      <path
         d="m 1845,4421 c -3,-5 -1,-12 5,-16 5,-3 10,1 10,9 0,18 -6,21 -15,7 z"
         id="path46-2"
         style="fill:#000000;fill-opacity:1;stroke-width:1.86217;stroke:#000000;stroke-opacity:1" />
      <path
         d="m 3760,4396 c 0,-3 10,-22 22,-43 17,-27 24,-33 26,-21 3,18 -26,67 -40,68 -5,0 -8,-2 -8,-4 z"
         id="path48-2"
         style="fill:#000000;fill-opacity:1;stroke-width:1.86217;stroke:#000000;stroke-opacity:1" />
      <path
         d="m 2125,4380 c -3,-5 -1,-10 4,-10 6,0 11,5 11,10 0,6 -2,10 -4,10 -3,0 -8,-4 -11,-10 z"
         id="path50-8"
         style="fill:#000000;fill-opacity:1;stroke-width:1.86217;stroke:#000000;stroke-opacity:1" />
      <path
         d="m 260.85166,6427.6269 c 9.12196,41.136 145.53562,186.4475 171.1057,182.0463 14.55813,-3.5227 59.57035,-69.2288 51.32965,-74.928 -3.53168,-2.4426 -17.52315,9.117 -31.52911,25.7632 l -24.6595,29.6649 -38.64047,-30.9713 c -21.57788,-16.6223 -57.83472,-56.1383 -80.35221,-87.8511 -41.71168,-56.8798 -51.71095,-66.3437 -47.25406,-43.724 z"
         id="path52-9"
         style="fill:#000000;fill-opacity:1;stroke-width:1.86217;stroke:#000000;stroke-opacity:1" />
      <path
         d="m 3660,4350 c 0,-5 6,-10 14,-10 40,0 62,-74 31,-100 -17,-14 -20,-30 -5,-30 13,0 40,54 40,80 0,11 -11,32 -25,45 -24,25 -55,33 -55,15 z"
         id="path54-7"
         style="fill:#000000;fill-opacity:1;stroke-width:1.86217;stroke:#000000;stroke-opacity:1" />
      <path
         d="m 1830,4340 c 0,-5 5,-10 10,-10 6,0 10,5 10,10 0,6 -4,10 -10,10 -5,0 -10,-4 -10,-10 z"
         id="path56-3"
         style="fill:#000000;fill-opacity:1;stroke-width:1.86217;stroke:#000000;stroke-opacity:1" />
      <path
         d="m 3610,4331 c -24,-45 -2,-86 42,-79 16,2 23,10 23,26 0,12 -4,22 -10,22 -5,0 -10,-7 -10,-15 0,-20 -17,-21 -30,-1 -7,11 -6,22 3,36 15,24 15,30 2,30 -5,0 -14,-9 -20,-19 z"
         id="path58-6"
         style="fill:#000000;fill-opacity:1;stroke-width:1.86217;stroke:#000000;stroke-opacity:1" />
      <path
         d="m 2115,4300 c 3,-5 8,-10 11,-10 2,0 4,5 4,10 0,6 -5,10 -11,10 -5,0 -7,-4 -4,-10 z"
         id="path60-1"
         style="fill:#000000;fill-opacity:1;stroke-width:1.86217;stroke:#000000;stroke-opacity:1" />
      <path
         d="m 3810,4260 c 0,-85 -50,-155 -153,-216 -56,-33 -96,-64 -82,-64 10,0 126,69 162,96 18,14 44,44 58,68 29,49 44,139 26,150 -7,5 -11,-6 -11,-34 z"
         id="path62-2"
         style="fill:#000000;fill-opacity:1;stroke-width:1.86217;stroke:#000000;stroke-opacity:1" />
      <path
         d="m 4983,4269 c -72,-46 -118,-205 -94,-320 11,-49 10,-55 -7,-69 -11,-9 -24,-25 -30,-37 -10,-17 -24,-22 -89,-27 -43,-4 -208,-20 -368,-36 -410,-42 -455,-46 -455,-44 0,1 23,19 50,39 50,37 130,136 130,162 0,14 -30,17 -67,7 -12,-3 -27,-19 -33,-35 -13,-31 -30,-39 -30,-14 0,25 -17,17 -58,-30 l -39,-44 -11,24 c -7,14 -16,25 -22,25 -13,0 -13,-80 0,-114 8,-23 6,-27 -14,-32 -37,-9 -102,14 -126,44 l -21,27 6,-55 c 3,-30 9,-68 12,-84 5,-29 6,-29 22,-9 14,18 51,43 65,43 2,0 7,-13 11,-28 3,-15 17,-40 31,-56 25,-27 72,-51 81,-42 9,9 -18,75 -42,101 -29,30 -30,35 -10,35 8,0 32,-19 53,-42 47,-52 122,-88 185,-88 26,0 47,4 47,8 0,19 -60,74 -110,101 -34,19 -49,32 -40,35 19,6 242,33 345,41 44,4 87,9 96,11 12,3 26,-12 49,-53 41,-73 123,-176 161,-204 16,-11 29,-24 29,-28 0,-10 -112,-61 -133,-61 -20,0 -124,95 -132,121 -4,10 -13,19 -22,19 -24,0 -156,-139 -192,-202 -31,-56 -34,-58 -74,-58 -24,0 -66,11 -95,25 -60,28 -62,28 -62,17 0,-16 97,-54 150,-59 l 56,-5 38,65 c 21,35 67,94 103,130 l 66,66 61,-64 c 81,-83 97,-86 191,-42 41,20 75,39 75,43 0,4 -27,31 -60,61 -58,52 -160,193 -160,220 0,7 6,13 13,14 6,0 43,3 80,8 l 69,7 34,-53 c 39,-61 108,-139 137,-155 16,-8 27,-2 68,38 27,27 49,46 49,42 0,-3 -9,-37 -21,-74 -27,-88 -89,-212 -144,-290 -50,-70 -179,-201 -207,-210 -25,-8 -158,56 -226,108 -29,22 -56,38 -60,34 -10,-10 -9,-222 1,-268 7,-35 6,-38 -25,-54 -18,-9 -56,-17 -85,-18 -29,0 -53,-4 -53,-8 0,-16 106,-7 148,12 46,21 46,21 32,70 -11,35 -16,228 -7,237 3,2 27,-11 54,-31 58,-42 156,-91 198,-100 27,-6 38,1 102,59 143,131 252,308 297,484 17,67 29,93 54,118 18,17 32,39 32,47 0,19 5,20 31,6 26,-14 24,-37 -3,-36 -28,1 -32,-31 -6,-47 26,-17 51,10 46,50 -3,25 0,33 12,33 22,0 40,20 40,44 -1,52 -65,86 -126,66 -48,-16 -58,-3 -34,46 43,87 161,106 201,32 14,-26 -6,-60 -34,-56 -22,3 -38,38 -17,38 7,0 10,-7 6,-15 -6,-17 9,-21 20,-4 9,16 -20,41 -39,33 -39,-15 -9,-74 37,-74 38,0 64,78 35,107 -8,8 -5,17 10,32 12,12 21,33 21,47 0,31 -52,84 -84,84 -34,0 -50,15 -38,36 13,23 -3,71 -28,84 -30,16 -72,11 -107,-11 z m 114,-25 c 12,-19 14,-30 6,-43 -13,-20 -42,-26 -56,-12 -8,8 -5,11 12,11 12,0 19,4 16,10 -3,6 -15,10 -26,10 -25,0 -26,-45 -1,-59 9,-6 12,-11 5,-11 -21,0 -73,-51 -93,-90 -11,-21 -23,-67 -28,-101 l -8,-64 -13,45 c -28,97 8,252 71,305 41,34 92,34 115,-1 z m 99,-125 c 29,-27 31,-64 5,-78 -14,-8 -22,-7 -31,4 -14,17 -5,35 16,35 8,0 12,5 9,10 -15,25 -59,-11 -50,-41 6,-16 1,-19 -33,-19 -52,0 -102,-34 -127,-87 -11,-23 -23,-42 -27,-43 -20,-1 -7,100 20,151 48,93 156,127 218,68 z M 4083,3899 c -23,-40 -110,-122 -151,-143 -31,-16 -32,-16 -32,4 0,36 50,120 72,120 4,0 8,-7 8,-15 0,-29 30,-14 50,25 16,31 26,40 46,40 h 25 z m 912,-44 c 65,-64 -9,-174 -91,-136 -29,13 -54,64 -46,94 4,16 7,14 16,-14 6,-19 23,-40 39,-49 24,-13 30,-13 55,0 50,29 38,104 -17,98 -18,-2 -27,-10 -29,-26 -4,-25 23,-41 41,-23 8,8 7,11 -6,11 -9,0 -17,5 -17,11 0,24 35,3 38,-23 3,-22 -2,-29 -23,-34 -52,-13 -86,56 -48,98 23,25 59,23 88,-7 z m 123,9 c 28,-19 28,-31 0,-30 -16,1 -24,-5 -26,-21 -3,-19 -6,-21 -27,-11 -30,14 -51,58 -33,69 21,14 62,10 86,-7 z m -1239,-56 c 5,-13 6,-27 3,-32 -6,-10 -20,19 -21,42 -1,20 9,14 18,-10 z m 1246,2 c 3,-5 1,-10 -4,-10 -6,0 -11,5 -11,10 0,6 2,10 4,10 3,0 8,-4 11,-10 z m -285,-29 c 0,-26 37,-70 71,-84 l 30,-12 -44,-50 -44,-49 -32,27 c -55,46 -131,145 -131,171 0,5 50,12 113,14 30,2 37,-1 37,-17 z m -1081,-64 32,-13 -26,-12 c -34,-15 -32,-16 -37,13 -3,14 -4,25 -3,25 2,0 17,-6 34,-13 z m 1326,3 c -3,-5 -10,-10 -16,-10 -5,0 -9,5 -9,10 0,6 7,10 16,10 8,0 12,-4 9,-10 z m -1060,-49 c 33,-15 71,-40 84,-55 l 24,-26 h -34 c -19,0 -52,9 -74,19 -44,20 -105,68 -105,82 0,17 45,9 105,-20 z m -158,-13 c 28,-31 46,-68 34,-68 -16,0 -59,44 -66,68 -3,12 -2,22 3,22 4,0 18,-10 29,-22 z"
         id="path64-9"
         style="fill:#000000;fill-opacity:1;stroke-width:1.86217;stroke:#000000;stroke-opacity:1" />
      <path
         d="m 1860,4270 c 0,-5 5,-10 10,-10 6,0 10,5 10,10 0,6 -4,10 -10,10 -5,0 -10,-4 -10,-10 z"
         id="path66-3"
         style="fill:#000000;fill-opacity:1;stroke-width:1.86217;stroke:#000000;stroke-opacity:1" />
      <path
         d="m 2070,4239 c 0,-5 5,-7 10,-4 6,3 10,8 10,11 0,2 -4,4 -10,4 -5,0 -10,-5 -10,-11 z"
         id="path68-1"
         style="fill:#000000;fill-opacity:1;stroke-width:1.86217;stroke:#000000;stroke-opacity:1" />
      <path
         d="m 1920,4230 c 0,-5 5,-10 10,-10 6,0 10,5 10,10 0,6 -4,10 -10,10 -5,0 -10,-4 -10,-10 z"
         id="path70-9"
         style="fill:#000000;fill-opacity:1;stroke-width:1.86217;stroke:#000000;stroke-opacity:1" />
      <path
         d="m 1995,4220 c -3,-5 1,-10 10,-10 9,0 13,5 10,10 -3,6 -8,10 -10,10 -2,0 -7,-4 -10,-10 z"
         id="path72-4"
         style="fill:#000000;fill-opacity:1;stroke-width:1.86217;stroke:#000000;stroke-opacity:1" />
      <path
         d="m 1372,4073 c 33,-69 43,-82 78,-93 31,-10 40,-19 49,-50 6,-20 11,-54 11,-74 0,-20 2,-36 5,-36 6,0 115,72 115,76 0,1 -25,14 -55,28 -64,29 -105,67 -105,96 0,13 -9,24 -27,30 -16,6 -36,15 -45,20 -21,12 -31,13 -26,3 z m 76,-56 c 5,-24 -15,-21 -28,4 -10,18 -9,20 7,17 10,-2 19,-11 21,-21 z m 142,-126 c 0,-3 -14,-14 -30,-23 -28,-16 -30,-16 -30,0 0,9 -3,27 -6,40 l -7,23 37,-17 c 20,-10 36,-20 36,-23 z"
         id="path74-7"
         style="fill:#000000;fill-opacity:1;stroke-width:1.86217;stroke:#000000;stroke-opacity:1" />
      <path
         d="m 1505,4000 c -4,-7 -3,-16 3,-22 14,-14 45,-2 40,15 -6,16 -34,21 -43,7 z"
         id="path76-8"
         style="fill:#000000;fill-opacity:1;stroke-width:1.86217;stroke:#000000;stroke-opacity:1" />
      <path
         d="m 3486,3867 c -8,-32 9,-88 35,-116 39,-42 137,-68 154,-41 4,6 -11,10 -37,10 -81,0 -148,71 -134,142 7,33 -9,38 -18,5 z"
         id="path78-4"
         style="fill:#000000;fill-opacity:1;stroke-width:1.86217;stroke:#000000;stroke-opacity:1" />
      <path
         d="m 1600,3829 c -72,-39 -80,-48 -56,-61 10,-6 36,-26 57,-45 43,-39 45,-38 52,47 3,30 8,63 12,73 10,24 -1,21 -65,-14 z m 32,-56 -7,-43 -34,27 -33,26 38,23 c 22,13 40,20 41,16 2,-4 0,-26 -5,-49 z"
         id="path80-5"
         style="fill:#000000;fill-opacity:1;stroke-width:1.86217;stroke:#000000;stroke-opacity:1" />
      <path
         d="m 1693,3714 c -3,-8 2,-23 11,-32 15,-15 17,-15 32,0 21,21 11,48 -16,48 -11,0 -23,-7 -27,-16 z m 33,-21 c -10,-10 -19,5 -10,18 6,11 8,11 12,0 2,-7 1,-15 -2,-18 z"
         id="path82-0"
         style="fill:#000000;fill-opacity:1;stroke-width:1.86217;stroke:#000000;stroke-opacity:1" />
      <path
         d="m 1584,3675 c -6,-15 12,-45 27,-45 4,0 14,7 22,15 13,13 16,10 21,-20 4,-19 4,-58 0,-87 l -7,-52 48,42 c 27,23 59,45 72,48 31,8 25,25 -13,37 -16,6 -42,19 -59,31 -68,48 -101,57 -111,31 z m 36,-15 c 0,-5 -4,-10 -10,-10 -5,0 -10,5 -10,10 0,6 5,10 10,10 6,0 10,-4 10,-10 z m 96,-49 35,-19 -28,-19 c -51,-36 -51,-36 -51,12 0,25 2,45 4,45 2,0 20,-9 40,-19 z"
         id="path84-3"
         style="fill:#000000;fill-opacity:1;stroke-width:1.86217;stroke:#000000;stroke-opacity:1" />
      <path
         d="m 4825,3491 c -51,-51 -146,-108 -210,-126 l -51,-15 1,-95 c 0,-65 4,-95 12,-95 13,0 99,67 129,101 27,31 74,101 74,111 0,19 -17,5 -34,-27 -18,-33 -143,-162 -150,-154 -2,2 -6,36 -9,75 l -6,71 42,13 c 64,19 148,66 205,116 48,42 63,64 44,64 -4,0 -25,-18 -47,-39 z"
         id="path86-6"
         style="fill:#000000;fill-opacity:1;stroke-width:1.86217;stroke:#000000;stroke-opacity:1" />
      <path
         d="m 3019,3386 c -22,-48 -39,-90 -36,-92 3,-3 24,0 48,6 24,7 65,9 91,6 27,-4 48,-4 48,-1 0,7 -66,112 -91,144 l -19,24 z m 106,-39 18,-28 -24,6 c -14,3 -44,2 -67,-3 -23,-6 -42,-6 -42,-1 0,5 12,33 27,63 l 27,55 21,-32 c 12,-18 30,-45 40,-60 z"
         id="path88-1"
         style="fill:#000000;fill-opacity:1;stroke-width:1.86217;stroke:#000000;stroke-opacity:1" />
      <path
         d="m 3054,3369 c -3,-6 -2,-15 4,-21 13,-13 32,-2 32,18 0,16 -26,19 -36,3 z"
         id="path90-0"
         style="fill:#000000;fill-opacity:1;stroke-width:1.86217;stroke:#000000;stroke-opacity:1" />
      <path
         d="m 4496,3353 c 18,-42 22,-108 12,-173 -8,-45 -8,-45 7,-15 28,59 10,225 -24,225 -6,0 -3,-16 5,-37 z"
         id="path92-6"
         style="fill:#000000;fill-opacity:1;stroke-width:1.86217;stroke:#000000;stroke-opacity:1" />
      <path
         d="m 3346,3336 c -39,-23 -71,-47 -73,-53 -2,-6 9,-13 25,-16 15,-3 51,-21 79,-41 28,-19 54,-32 57,-29 3,4 6,46 6,95 0,64 -3,88 -12,88 -7,-1 -44,-20 -82,-44 z m 74,-47 v -70 l -32,24 c -18,14 -43,28 -55,32 -13,3 -23,9 -23,13 0,5 91,65 108,71 1,1 2,-31 2,-70 z"
         id="path94-3"
         style="fill:#000000;fill-opacity:1;stroke-width:1.86217;stroke:#000000;stroke-opacity:1" />
      <path
         d="m 3371,3306 c -8,-10 -8,-16 2,-25 16,-13 27,-5 27,21 0,21 -13,23 -29,4 z"
         id="path96-2"
         style="fill:#000000;fill-opacity:1;stroke-width:1.86217;stroke:#000000;stroke-opacity:1" />
      <path
         d="m 2764,3333 c 2,-10 8,-53 12,-95 3,-43 9,-78 13,-78 4,0 22,15 40,34 18,19 50,42 72,51 21,10 39,21 39,25 0,8 -151,80 -169,80 -7,0 -10,-7 -7,-17 z m 81,-30 c 30,-15 55,-30 54,-33 0,-3 -22,-19 -50,-37 -48,-31 -49,-31 -53,-10 -8,37 -14,107 -10,107 2,0 28,-12 59,-27 z"
         id="path98-0"
         style="fill:#000000;fill-opacity:1;stroke-width:1.86217;stroke:#000000;stroke-opacity:1" />
      <path
         d="m 2803,3275 c -3,-9 -3,-18 0,-22 10,-10 37,6 37,22 0,20 -29,20 -37,0 z"
         id="path100-6"
         style="fill:#000000;fill-opacity:1;stroke-width:1.86217;stroke:#000000;stroke-opacity:1" />
      <path
         d="m 1551.9472,-1063.2578 c 11.5847,3.8848 19.6101,19.5424 16.0509,31.315 -4.2713,14.1271 -18.7034,19.6603 -30.288,15.7754 -13.9017,-4.6618 -20.3219,-17.1878 -16.0508,-31.315 3.5592,-11.7726 16.3863,-20.4373 30.2879,-15.7754 z"
         id="path102-1"
         style="fill:#ffffff;fill-opacity:1;stroke-width:1.86218;stroke:#ffffff;stroke-opacity:1" />
      <path
         d="m 1525.2867,-890.67172 c 11.5846,3.88488 19.61,19.54247 16.0508,31.31509 -4.2712,14.12716 -18.7033,19.66024 -30.2879,15.77535 -13.9017,-4.66186 -20.322,-17.18774 -16.0509,-31.3149 3.5593,-11.7726 16.3864,-20.43741 30.288,-15.77554 z"
         id="path104-5"
         style="fill:#ffffff;fill-opacity:1;stroke-width:1.86218;stroke:#ffffff;stroke-opacity:1" />
      <path
         d="m 1671.2852,-1204.7649 c 11.5847,3.8849 19.6102,19.5422 16.0509,31.3149 -4.2711,14.1272 -18.7032,19.6603 -30.2879,15.7754 -13.9017,-4.6619 -20.322,-17.1878 -16.0509,-31.3149 3.5593,-11.7726 16.3864,-20.4372 30.2879,-15.7754 z"
         id="path106-5"
         style="fill:#ffffff;fill-opacity:1;stroke-width:1.86218;stroke:#ffffff;stroke-opacity:1" />
      <path
         d="m 1599.4094,1392.5543 c -41,-41 -45,-75 -15,-125 55,-90 190,-56 190,47 0,56 -39,100 -97,108 -39,5 -46,2 -78,-30 z m 126,-7 24,-20 -29,10 c -25,9 -34,8 -55,-8 -15,-11 -28,-27 -29,-36 -4,-20 24,-56 43,-56 19,0 36,26 29,44 -9,24 -26,20 -19,-5 6,-17 3,-20 -12,-17 -30,6 -29,46 2,60 25,11 30,10 51,-15 29,-34 30,-47 3,-81 -31,-39 -88,-37 -123,5 -33,39 -34,82 -1,114 30,31 83,33 116,5 z"
         id="path108-4"
         style="fill:#000000;fill-opacity:1;stroke-width:1.86217;stroke:#000000;stroke-opacity:1" />
      <path
         d="m 1571.6935,-706.54868 c 13.7202,-3.17864 23.8812,5.41523 20.322,17.18785 -4.2712,14.12716 -19.4152,22.01487 -30.9999,18.12999 -13.9016,-4.66187 -21.7456,-12.47886 -20.322,-17.18785 2.1356,-7.06353 14.9627,-15.72832 30.9999,-18.12999 z"
         id="path110-7"
         style="fill:#ffffff;fill-opacity:1;stroke-width:1.86218;stroke:#ffffff;stroke-opacity:1" />
      <path
         d="m 1819.1658,-1271.8695 c 13.7202,-3.1788 22.4574,10.1243 16.0507,31.3149 -6.4067,21.1906 -20.8387,26.7239 -30.2879,15.7755 -11.7661,-11.7255 -17.4745,-26.6061 -16.0508,-31.3151 1.4237,-4.7089 14.2508,-13.3737 30.288,-15.7753 z"
         id="path112-6"
         style="fill:#ffffff;fill-opacity:1;stroke-width:1.86218;stroke:#ffffff;stroke-opacity:1" />
      <path
         d="m 3084,3186 c -212,-48 -317,-212 -286,-446 28,-211 150,-325 360,-338 135,-8 254,37 325,122 93,110 97,264 11,364 -62,73 -145,102 -239,82 -137,-28 -210,-155 -139,-239 32,-38 48,-40 28,-3 -57,109 74,204 195,142 47,-23 74,-56 97,-115 22,-59 13,-90 -46,-146 -83,-81 -195,-107 -310,-73 -73,21 -159,107 -184,181 -68,206 67,405 286,421 84,6 147,-11 204,-55 24,-18 44,-29 44,-24 0,23 -57,73 -114,101 -75,37 -147,45 -232,26 z"
         id="path114-5"
         style="fill:#000000;fill-opacity:1;stroke-width:1.86217;stroke:#000000;stroke-opacity:1" />
      <path
         d="m 5060,3180 c 0,-5 5,-10 10,-10 6,0 10,5 10,10 0,6 -4,10 -10,10 -5,0 -10,-4 -10,-10 z"
         id="path116-6"
         style="fill:#000000;fill-opacity:1;stroke-width:1.86217;stroke:#000000;stroke-opacity:1" />
      <path
         d="m 1702.0749,-565.28493 c 11.5846,3.88485 19.6099,19.54236 15.3389,33.66941 -3.5593,11.77261 -16.5677,12.59681 -26.0168,1.64833 -11.7661,-11.72541 -17.4745,-26.60592 -15.3389,-33.66945 1.4237,-4.70918 12.1151,-6.31016 26.0168,-1.64829 z"
         id="path118-9"
         style="fill:#ffffff;fill-opacity:1;stroke-width:1.86218;stroke:#ffffff;stroke-opacity:1" />
      <path
         d="m 5140,3170 c 0,-5 5,-10 10,-10 6,0 10,5 10,10 0,6 -4,10 -10,10 -5,0 -10,-4 -10,-10 z"
         id="path120-3"
         style="fill:#000000;fill-opacity:1;stroke-width:1.86217;stroke:#000000;stroke-opacity:1" />
      <path
         d="m 3503,3153 c -13,-2 -23,-6 -23,-8 0,-2 14,-19 30,-37 17,-18 37,-52 46,-75 9,-24 20,-43 24,-43 9,0 90,142 90,158 0,12 -114,15 -167,5 z m 122,-60 c -40,-69 -41,-69 -64,-25 -11,22 -25,43 -31,47 -25,16 -5,25 56,25 h 66 z"
         id="path122-7"
         style="fill:#000000;fill-opacity:1;stroke-width:1.86217;stroke:#000000;stroke-opacity:1" />
      <path
         d="m 3566,3104 c -9,-23 -8,-24 14,-24 13,0 20,7 20,20 0,24 -25,27 -34,4 z"
         id="path124-4"
         style="fill:#000000;fill-opacity:1;stroke-width:1.86217;stroke:#000000;stroke-opacity:1" />
      <path
         d="m 4995,3150 c -3,-5 1,-10 10,-10 9,0 13,5 10,10 -3,6 -8,10 -10,10 -2,0 -7,-4 -10,-10 z"
         id="path126-5"
         style="fill:#000000;fill-opacity:1;stroke-width:1.86217;stroke:#000000;stroke-opacity:1" />
      <path
         d="m 5055,3138 c -35,-19 -55,-52 -55,-91 0,-55 52,-107 107,-107 42,0 61,11 87,50 55,82 -52,196 -139,148 z m 94,-25 c 22,-18 22,-18 -21,-18 -37,0 -43,-3 -52,-28 -13,-36 2,-62 35,-62 18,0 24,5 24,23 0,12 -4,21 -10,20 -5,-1 -9,-9 -7,-16 2,-8 -2,-12 -10,-10 -22,8 -21,46 2,58 33,18 70,-11 70,-54 0,-86 -121,-94 -156,-11 -33,79 60,151 125,98 z"
         id="path128-2"
         style="fill:#000000;fill-opacity:1;stroke-width:1.86217;stroke:#000000;stroke-opacity:1" />
      <path
         d="m 2015.1986,-1245.0292 c 11.5847,3.8849 19.6102,19.5423 16.0509,31.315 -4.2712,14.1272 -18.7033,19.6603 -30.288,15.7755 -13.9017,-4.662 -20.322,-17.1879 -16.0508,-31.315 3.5593,-11.7726 16.3862,-20.4374 30.2879,-15.7755 z"
         id="path130-5"
         style="fill:#ffffff;fill-opacity:1;stroke-width:1.86218;stroke:#ffffff;stroke-opacity:1" />
      <path
         d="m 5200,3130 c 0,-5 5,-10 10,-10 6,0 10,5 10,10 0,6 -4,10 -10,10 -5,0 -10,-4 -10,-10 z"
         id="path132-4"
         style="fill:#000000;fill-opacity:1;stroke-width:1.86217;stroke:#000000;stroke-opacity:1" />
      <path
         d="m 1904.997,-542.91166 c 11.0542,14.07995 10.7052,32.11551 0.195,41.55717 -30.8185,25.97047 -42.5844,14.24513 -29.771,-28.13624 5.6949,-18.83623 20.1269,-24.36935 29.576,-13.42093 z"
         id="path134-7"
         style="fill:#ffffff;fill-opacity:1;stroke-width:1.86218;stroke:#ffffff;stroke-opacity:1" />
      <path
         d="m 2552,3089 c 5,-24 83,-159 90,-159 4,0 17,21 28,48 12,26 33,59 47,74 15,15 23,31 19,35 -4,5 -48,10 -98,12 -72,2 -89,0 -86,-10 z m 125,-64 c -18,-30 -34,-54 -37,-54 -3,-1 -19,24 -37,54 l -32,55 h 69 68 z"
         id="path136-4"
         style="fill:#000000;fill-opacity:1;stroke-width:1.86217;stroke:#000000;stroke-opacity:1" />
      <path
         d="m 2617,3046 c -7,-16 1,-26 20,-26 7,0 13,9 13,20 0,23 -25,27 -33,6 z"
         id="path138-4"
         style="fill:#000000;fill-opacity:1;stroke-width:1.86217;stroke:#000000;stroke-opacity:1" />
      <path
         d="m 4955,3090 c 3,-5 8,-10 11,-10 2,0 4,5 4,10 0,6 -5,10 -11,10 -5,0 -7,-4 -4,-10 z"
         id="path140-3"
         style="fill:#000000;fill-opacity:1;stroke-width:1.86217;stroke:#000000;stroke-opacity:1" />
      <path
         d="m 2156.0286,-1120.0052 c 11.5847,3.8849 19.61,19.5424 16.0508,31.315 -4.2712,14.1271 -18.7033,19.6604 -30.2879,15.7754 -13.9017,-4.6618 -20.3219,-17.1879 -16.0509,-31.3149 3.5593,-11.7726 16.3864,-20.4374 30.288,-15.7755 z"
         id="path142-0"
         style="fill:#ffffff;fill-opacity:1;stroke-width:1.86218;stroke:#ffffff;stroke-opacity:1" />
      <path
         d="m 3126,3054 c -72,-23 -150,-104 -171,-179 -29,-97 1,-190 77,-245 130,-95 313,-43 313,88 0,36 -5,48 -28,68 -33,28 -59,31 -81,8 -29,-29 -13,-68 25,-61 l 24,4 -23,8 c -28,9 -25,39 4,43 27,4 64,-40 64,-75 0,-35 -37,-83 -76,-99 -132,-55 -293,50 -294,191 0,77 67,182 144,222 34,19 147,24 226,10 l 45,-7 -34,16 c -50,23 -156,27 -215,8 z"
         id="path144-7"
         style="fill:#000000;fill-opacity:1;stroke-width:1.86217;stroke:#000000;stroke-opacity:1" />
      <path
         d="m 5235,3060 c -3,-5 -1,-10 4,-10 6,0 11,5 11,10 0,6 -2,10 -4,10 -3,0 -8,-4 -11,-10 z"
         id="path146-8"
         style="fill:#000000;fill-opacity:1;stroke-width:1.86217;stroke:#000000;stroke-opacity:1" />
      <path
         d="m 2076.0469,-602.24651 c 11.5847,3.88488 19.6102,19.54238 16.0509,31.3151 -4.2712,14.12706 -18.7034,19.66023 -30.288,15.77534 -13.9017,-4.66187 -20.3219,-17.18784 -16.0509,-31.31489 3.5593,-11.77271 16.3864,-20.43743 30.288,-15.77555 z"
         id="path148-6"
         style="fill:#ffffff;fill-opacity:1;stroke-width:1.86218;stroke:#ffffff;stroke-opacity:1" />
      <path
         d="m 2221.7,-943.51983 c 11.5846,3.88486 19.6101,19.54239 16.0508,31.31491 -4.2711,14.12714 -18.7034,19.6603 -30.288,15.77544 -13.9017,-4.6619 -20.3219,-17.18784 -16.0507,-31.315 3.5592,-11.77251 16.3861,-20.43725 30.2879,-15.77535 z"
         id="path150-8"
         style="fill:#ffffff;fill-opacity:1;stroke-width:1.86218;stroke:#ffffff;stroke-opacity:1" />
      <path
         d="m 4940,3020 c 0,-5 5,-10 10,-10 6,0 10,5 10,10 0,6 -4,10 -10,10 -5,0 -10,-4 -10,-10 z"
         id="path152-8"
         style="fill:#000000;fill-opacity:1;stroke-width:1.86217;stroke:#000000;stroke-opacity:1" />
      <path
         d="m 2176.0804,-748.06331 c 11.5845,3.88486 19.61,19.54228 16.0508,31.3149 -4.2711,14.12716 -18.7034,19.66031 -30.288,15.77545 -13.9016,-4.66187 -20.322,-17.18784 -16.0508,-31.315 3.5593,-11.77261 16.3863,-20.43722 30.288,-15.77535 z"
         id="path154-4"
         style="fill:#ffffff;fill-opacity:1;stroke-width:1.86218;stroke:#ffffff;stroke-opacity:1" />
      <path
         d="m 5220,2980 c 0,-5 5,-10 10,-10 6,0 10,5 10,10 0,6 -4,10 -10,10 -5,0 -10,-4 -10,-10 z"
         id="path156-3"
         style="fill:#000000;fill-opacity:1;stroke-width:1.86217;stroke:#000000;stroke-opacity:1" />
      <path
         d="m 3607,2903 c 4,-21 7,-64 6,-96 -2,-43 1,-56 10,-50 78,47 147,95 147,103 0,10 -142,80 -162,80 -5,0 -6,-16 -1,-37 z m 80,-15 c 29,-12 53,-25 53,-29 0,-7 -92,-69 -102,-69 -4,0 -8,27 -10,60 -1,33 -1,60 2,60 2,0 28,-10 57,-22 z"
         id="path158-1"
         style="fill:#000000;fill-opacity:1;stroke-width:1.86217;stroke:#000000;stroke-opacity:1" />
      <path
         d="m 3650,2850 c 0,-23 25,-27 33,-6 7,16 -1,26 -20,26 -7,0 -13,-9 -13,-20 z"
         id="path160-4"
         style="fill:#000000;fill-opacity:1;stroke-width:1.86217;stroke:#000000;stroke-opacity:1" />
      <path
         d="m 5175,2920 c 4,-6 11,-8 16,-5 14,9 11,15 -7,15 -8,0 -12,-5 -9,-10 z"
         id="path162-9"
         style="fill:#000000;fill-opacity:1;stroke-width:1.86217;stroke:#000000;stroke-opacity:1" />
      <path
         d="m 5030,2910 c 0,-5 5,-10 10,-10 6,0 10,5 10,10 0,6 -4,10 -10,10 -5,0 -10,-4 -10,-10 z"
         id="path164-2"
         style="fill:#000000;fill-opacity:1;stroke-width:1.86217;stroke:#000000;stroke-opacity:1" />
      <path
         d="m 5105,2900 c -3,-5 -1,-10 4,-10 6,0 11,5 11,10 0,6 -2,10 -4,10 -3,0 -8,-4 -11,-10 z"
         id="path166-0"
         style="fill:#000000;fill-opacity:1;stroke-width:1.86217;stroke:#000000;stroke-opacity:1" />
      <path
         d="m -1788.3026,2414.8626 c 3.144,-2.0277 20.9924,-6.2434 39.0583,-8.7755 l 32.7703,-4.7201 1.3903,29.1982 c 2.2486,80.6269 126.4723,174.6936 272.9101,206.0986 43.1332,9.5715 56.3744,9.2393 58.8534,-0.5672 5.3812,-18.9741 -2.8536,-27.3426 -30.8352,-33.0067 -32.1897,-6.598 -106.3758,-50.8598 -150.6939,-90.6741 -18.9968,-17.8426 -50.9082,-56.5391 -70.7999,-86.5722 -52.0568,-78.5975 -69.3604,-141.3068 -29.0449,-103.471 8.4404,7.3239 26.5426,12.9762 39.7837,12.6439 l 25.0069,-1.5369 6.0338,33.4991 c 10.9794,58.5804 34.5348,109.0498 67.0508,141.8843 32.3105,33.8792 78.6964,65.976 116.8113,81.5201 20.8471,8.4417 27.5703,7.7532 33.6166,-3.4421 7.0863,-13.69 6.2398,-14.968 -29.6138,-42.0021 -51.4646,-39.7649 -109.0596,-134.8538 -119.2045,-194.8843 l -6.07,-41.6835 17.9448,17.6092 c 10.1333,9.8799 28.0541,22.0329 39.6385,27.329 20.6415,9.4863 21.0647,10.1253 14.4499,35.3668 -6.4211,21.4688 -3.6399,32.4426 15.4295,66.654 13.132,22.5372 35.7686,55.3599 51.4038,73.5468 24.5109,28.8779 28.9367,31.4953 41.5127,23.3842 13.205,-8.5166 12.9753,-12.9283 -9.9031,-52.8908 -36.869,-66.5058 -46.6025,-176.048 -11.0515,-122.3717 5.502,8.3071 18.3682,18.2483 29.1061,22.2664 17.691,7.7413 18.5375,9.0194 7.4608,23.4591 -6.8928,9.9173 -8.9123,28.5472 -4.6197,48.5779 9.867,44.7063 20.8588,58.5923 43.3385,55.9495 16.3851,-2.36 20.1458,-7.5215 26.5188,-39.9028 7.8119,-39.6931 20.5573,-57.0331 25.4908,-34.6799 1.9227,6.9677 7.6544,19.6864 13.1562,27.9935 8.4646,12.7801 7.0135,17.3639 -8.7066,27.5026 -31.4402,20.2776 -0.2301,43.011 65.5884,48.895 61.6104,4.9503 155.2893,36.6399 216.62131,73.6885 136.5701,81.5439 212.99264,203.7044 230.75492,370.0822 5.27184,51.3179 -14.51227,188.1055 -33.87245,230.6869 -9.37169,19.724 -8.94851,20.3629 16.55413,35.8337 51.00517,30.9414 117.88773,39.7871 178.77279,23.318 32.54048,-9.1317 66.49482,111.2361 45.69555,161.1295 -15.18819,35.3309 -25.07972,32.5908 -14.52283,-4.3129 12.63682,-41.8931 7.78817,-92.572 -12.10341,-122.6052 -13.12008,-19.8091 -17.75141,-21.382 -43.15737,-15.0277 -50.38887,13.3474 -168.03488,-19.3 -190.04263,-52.5282 -2.96264,-4.473 3.22886,-30.3535 13.41082,-56.9837 37.00327,-93.1751 36.00069,-224.7638 -2.92371,-328.2466 -26.59041,-71.3111 -90.44928,-156.8883 -149.49582,-199.9709 -56.72477,-40.9321 -142.4469,-79.5774 -205.7738,-92.5412 l -48.599,-9.6942 38.3687,25.412 c 33.5198,22.1556 89.652,71.6775 101.5023,89.5696 2.1161,3.1951 -3.4828,20.4856 -13.4953,37.887 -25.8538,47.6815 -96.4975,91.4199 -150.9251,94.6045 l -40.5577,2.447 3.023,18.1136 c 3.6759,23.1642 16.7235,26.6048 82.9048,19.4872 49.7962,-4.7575 102.8576,-31.6842 143.875,-72.7303 l 21.13764,-20.9286 13.37389,29.677 c 50.72641,110.4625 15.42737,303.767 -71.43253,388.059 -12.3463,12.5227 -14.2086,19.1956 -6.6147,25.2414 5.6954,4.5344 26.1556,20.5214 45.7692,35.2305 70.43734,52.1513 138.2864,184.4013 106.21732,205.0845 -32.49224,20.0442 -156.32972,13.2773 -152.01252,-8.6584 0.8223,-4.1782 11.1249,-3.5273 21.8629,0.4908 26.3249,11.2925 97.7905,10.7985 115.39712,-0.557 17.60647,-11.3555 1.18558,-64.6024 -37.53365,-121.7072 -25.59916,-37.2957 -52.81877,-60.7787 -124.91287,-107.3017 -4.4258,-2.6173 6.2156,-20.4242 26.0835,-43.2698 79.68914,-89.6989 112.376,-255.7834 68.83232,-358.1109 -9.14154,-23.287 -10.19361,-23.5204 -21.69362,-9.7195 -19.0214,24.1236 -84.6467,61.8895 -122.4474,69.8539 -19.1059,5.0268 -49.1554,7.0801 -66.399,5.4339 -17.8725,-1.2405 -32.7944,-0.7361 -33.2055,1.3529 -3.0958,12.9403 63.6638,279.0401 72.9748,293.0982 6.3484,9.5851 17.9569,20.3374 26.8084,25.5721 25.285,13.7872 15.6353,18.1869 -33.3507,16.0381 -25.4422,-1.8301 -60.3286,-0.3052 -77.3425,2.4605 l -31.7183,4.9534 21.1135,-26.3848 c 14.8373,-19.6012 21.4762,-39.3864 22.1778,-70.8458 2.3101,-48.0002 -21.9575,-259.4285 -38.7169,-341.6402 l -10.3263,-53.5297 -32.613,-7.237 c -25.2488,-5.6029 -35.9987,-12.349 -49.1188,-32.1582 -14.8129,-22.3651 -21.3428,-25.4494 -53.5083,-26.5911 -82.2037,-3.5241 -190.4417,-47.711 -264.7002,-108.3414 -53.3751,-44.0044 -124.5862,-128.4876 -113.8965,-135.382 z m 68.8531,74.1484 c 15.1879,12.0917 15.1879,12.0917 6.5057,-2.3719 -4.4499,-8.0737 -11.0521,-27.5266 -14.6918,-42.5065 -3.0109,-15.3856 -7.8961,-26.8263 -11.0401,-24.7985 -2.5152,1.6222 -10.7018,4.1663 -17.6307,5.8992 -10.2906,2.0772 -9.6376,7.1279 4.1112,26.5314 9.9398,13.6526 24.3053,29.9225 32.7457,37.2463 z m 528.8281,704.9546 33.8343,-1.7586 -12.733,-27.3544 c -7.0013,-14.6358 -19.3714,-54.9918 -26.4573,-88.7244 -8.1378,-33.966 -15.8283,-61.8368 -17.9324,-62.3037 -2.104,-0.4669 -1.9954,24.0862 0.2414,54.5624 2.6601,31.1152 0.9427,70.5255 -4.6562,87.8161 -5.1757,17.9295 -8.8882,34.0034 -7.6185,35.9204 0.6409,2.3226 17.0381,2.6907 35.3217,1.8422 z m -374.7477,-704.0137 c 8.0052,3.9568 5.4537,-2.6054 -6.1911,-21.5421 -9.7341,-14.6971 -23.1201,-47.1022 -29.3233,-71.3724 l -11.5478,-44.5343 -23.5679,-5.7749 c -13.0476,-3.4405 -25.4543,-4.5583 -27.9695,-2.9361 -11.9473,7.7055 72.6859,132.7781 98.5996,146.1598 z m 263.0669,214.2711 c 37.6675,9.4488 71.0304,-3.8611 87.9236,-33.908 6.8806,-12.6454 11.4517,-24.7131 10.1819,-26.6301 -0.8464,-1.2781 -5.6593,3.6499 -9.4079,11.5394 -27.3169,49.5373 -100.8746,52.2925 -132.1933,5.0062 -34.7046,-52.3984 8.7195,-119.6197 69.1084,-105.674 42.71,8.9325 64.1735,61.6632 38.9002,98.0266 -8.3559,11.773 -7.5094,13.051 1.9227,6.9677 18.6586,-11.122 25.9869,-65.0948 11.5972,-86.8209 -28.3561,-42.8133 -98.3465,-41.4468 -127.7917,2.1673 -34.2459,51.2701 -9.3725,114.569 49.7589,129.3258 z m -165.1066,-260.1241 c -4.2684,-14.5743 -8.3676,-38.3777 -8.0047,-51.3793 -0.096,-21.8249 -2.6359,-25.6589 -18.4284,-31.8888 -17.2678,-7.1023 -17.2678,-7.1023 -9.5894,18.0403 8.7547,30.8324 19.3715,54.9918 33.1324,77.1235 8.4645,12.7801 8.8756,10.691 2.8901,-11.8957 z m 275.2669,358.7012 c 38.4415,-5.6419 52.0817,-10.7914 83.0866,-34.4361 45.4554,-35.7007 66.5326,-70.2698 53.4125,-90.079 -12.2735,-18.5311 -91.5745,-78.6453 -118.7459,-91.2158 l -21.2703,-9.0807 5.6106,32.8601 c 6.4811,39.5944 -9.7591,74.6919 -45.6009,97.8083 -22.637,14.5999 -23.8825,18.1392 -18.4896,49.3157 3.0229,18.1136 7.9444,37.7387 10.9069,42.2118 2.3339,4.8786 25.672,6.2418 51.0901,2.6157 z m -103.9688,-124.4576 c 13.0476,3.4404 27.9694,2.9361 32.5767,-0.9473 8.8032,-5.6778 8.3801,-6.3168 -1.9106,-4.2397 -40.1103,8.5422 -73.243,-21.1587 -64.5726,-56.8458 3.7126,-16.0739 9.1541,-21.4074 26.3737,-25.2176 24.7772,-5.9486 48.8407,16.8341 42.0084,40.392 -3.519,12.3012 -7.2918,14.7345 -21.3915,11.0606 -16.8324,-3.7352 -27.4372,-25.1665 -15.49,-32.8721 4.4016,-2.8388 9.0451,1.4621 12.0318,11.3913 3.6276,12.2519 6.5782,13.9967 10.9677,8.4298 9.408,-11.5395 -0.9551,-25.831 -18.6098,-25.388 -23.1206,0.3203 -31.2348,19.2331 -17.2682,40.3202 20.738,31.3112 59.7964,22.5356 68.4548,-15.8795 7.2193,-31.1033 -12.6603,-58.4084 -45.4668,-61.8727 -28.5982,-2.5305 -49.76,12.9418 -57.4025,43.4061 -5.3572,24.4304 20.4476,60.6815 49.6989,68.2627 z m -58.4162,-233.1784 c 3.0354,-26.5808 0.4719,-35.8711 -10.4838,-41.5727 -17.2797,-9.8305 -17.6909,-7.7413 -7.8481,31.5088 11.3422,45.5788 14.2928,47.3238 18.3319,10.0639 z m 105.9525,50.2208 c 3.1441,-2.0279 4.172,-7.2507 1.6326,-11.0847 -2.1161,-3.1949 -6.1066,-2.4451 -7.9809,1.4996 -2.5032,4.3503 -2.9022,9.1676 -1.6326,11.0846 0.8465,1.278 4.2082,0.9338 7.9809,-1.4995 z"
         id="path168-6"
         style="fill:#000000;fill-opacity:1;stroke-width:1.86217;stroke:#000000;stroke-opacity:1" />
      <path
         d="m 2552,2774 c -40,-25 -72,-49 -72,-53 0,-9 146,-81 165,-81 11,0 12,6 4,30 -6,16 -9,57 -7,90 2,38 -1,60 -8,60 -6,0 -43,-21 -82,-46 z m 68,-26 c 0,-24 3,-54 7,-66 6,-24 5,-23 -56,8 l -62,31 23,17 c 38,29 73,51 81,51 4,1 7,-18 7,-41 z"
         id="path170-8"
         style="fill:#000000;fill-opacity:1;stroke-width:1.86217;stroke:#000000;stroke-opacity:1" />
      <path
         d="m 2564,2739 c -8,-14 11,-33 25,-25 6,4 11,14 11,22 0,16 -26,19 -36,3 z"
         id="path172-9"
         style="fill:#000000;fill-opacity:1;stroke-width:1.86217;stroke:#000000;stroke-opacity:1" />
      <path
         d="m 4977,2708 c 18,-19 33,-46 35,-63 2,-22 9,-31 25,-33 27,-4 81,-95 113,-192 39,-116 51,-310 20,-310 -5,0 -12,12 -16,28 -36,164 -125,332 -233,437 -28,27 -51,56 -51,65 0,23 -20,40 -46,40 -13,0 -39,9 -58,21 -20,12 -36,16 -36,11 0,-6 16,-20 36,-31 20,-12 34,-24 31,-28 -14,-13 15,-43 42,-43 66,0 227,-228 275,-389 24,-83 20,-83 -23,2 -21,42 -57,101 -79,130 -43,58 -151,167 -164,167 -4,0 -8,8 -8,18 0,25 -19,42 -48,42 -13,0 -32,5 -43,10 -27,15 -25,-5 3,-24 12,-9 19,-16 15,-16 -4,0 -3,-9 4,-21 8,-15 18,-20 35,-16 55,10 230,-197 290,-343 14,-34 23,-64 21,-66 -2,-3 -23,24 -46,59 -38,59 -147,173 -197,208 -12,8 -23,23 -25,34 -3,15 -15,21 -51,26 -26,4 -52,10 -57,14 -6,3 -11,1 -11,-5 0,-6 9,-14 21,-18 11,-4 26,-19 33,-32 8,-17 20,-25 37,-24 30,2 116,-62 173,-130 49,-58 96,-126 96,-139 0,-5 -33,19 -72,54 -40,34 -100,80 -132,101 -33,21 -64,48 -71,61 -7,14 -19,22 -35,21 -14,-1 -30,6 -36,15 -8,11 -30,16 -70,16 -46,1 -54,-1 -39,-9 10,-6 29,-21 41,-34 14,-15 32,-22 46,-20 15,2 27,-4 33,-17 8,-15 19,-19 41,-17 22,2 48,-9 93,-39 64,-42 185,-148 178,-155 -2,-2 -30,9 -63,25 -32,17 -78,36 -102,43 -24,7 -48,21 -53,30 -10,19 -54,25 -63,9 -3,-4 -17,-6 -31,-3 -15,2 -25,0 -25,-7 0,-6 9,-11 21,-11 11,0 29,-10 39,-22 16,-20 21,-21 40,-10 26,16 61,6 163,-45 95,-47 88,-57 -35,-48 -131,9 -263,42 -373,94 -100,47 -215,125 -215,147 0,28 48,110 94,161 43,47 45,52 26,58 -46,15 -184,-12 -269,-52 -39,-19 -58,-23 -70,-16 -16,10 -86,104 -94,126 -2,7 -7,9 -11,5 -12,-10 22,-67 71,-120 l 46,-48 32,20 c 18,11 59,29 90,40 61,21 185,38 185,25 0,-4 -16,-25 -36,-47 -37,-41 -84,-130 -84,-159 0,-22 131,-111 235,-160 108,-51 216,-79 332,-86 51,-3 90,-9 88,-14 -3,-4 -34,-18 -70,-31 -36,-12 -65,-26 -65,-29 0,-3 15,-26 34,-50 70,-92 210,-133 324,-95 50,17 72,15 72,-5 0,-17 -104,-59 -170,-70 -127,-20 -259,29 -355,133 l -57,62 -102,-3 c -121,-3 -213,11 -323,48 l -83,27 -54,-23 c -29,-12 -85,-31 -124,-42 -66,-18 -71,-18 -86,-2 -33,36 -68,133 -75,204 l -6,72 -55,3 c -55,3 -175,-22 -186,-39 -7,-12 3,-11 60,6 27,8 75,15 106,15 h 57 l 6,-66 c 6,-66 37,-148 76,-203 l 21,-28 62,14 c 35,8 93,27 129,42 l 67,28 83,-28 c 98,-33 233,-52 340,-48 l 77,3 52,-57 c 37,-40 74,-68 128,-94 74,-37 79,-38 186,-38 105,0 115,2 180,33 38,18 70,31 71,30 38,-48 104,-147 131,-195 20,-34 40,-65 45,-69 24,-15 139,93 139,131 0,6 -27,24 -61,40 -110,53 -294,188 -343,253 -25,33 -5,82 52,123 56,41 126,135 147,200 10,28 26,60 37,71 18,18 18,21 4,43 -9,14 -16,35 -17,47 -1,21 -1,21 -7,3 -4,-11 -15,-31 -24,-46 -15,-21 -16,-30 -7,-55 10,-25 8,-37 -15,-86 -38,-80 -153,-204 -173,-185 -3,3 7,34 20,69 53,131 53,289 1,412 -14,33 -27,74 -28,91 -1,20 -8,33 -24,41 -12,6 -34,22 -47,34 -27,26 -33,16 -11,-16 8,-11 16,-33 18,-49 2,-22 9,-31 25,-33 21,-3 42,-41 74,-137 23,-67 17,-218 -12,-299 -30,-88 -55,-102 -46,-27 14,114 -31,312 -95,421 -18,30 -31,63 -29,73 3,23 -16,47 -38,47 -10,0 -30,14 -46,30 -16,17 -33,30 -39,30 -5,0 4,-15 21,-32 z m -127,-63 c 0,-8 -6,-15 -14,-15 -17,0 -28,14 -19,24 12,12 33,6 33,-9 z m 210,2 c 0,-8 -3,-17 -7,-20 -9,-9 -34,13 -27,24 8,14 34,11 34,-4 z m 150,-12 c 0,-8 -7,-15 -15,-15 -8,0 -15,7 -15,15 0,8 7,15 15,15 8,0 15,-7 15,-15 z m -392,-87 c -3,-7 -11,-13 -18,-13 -7,0 -15,6 -17,13 -3,7 4,12 17,12 13,0 20,-5 18,-12 z m 4,-160 c -15,-15 -26,-4 -18,18 5,13 9,15 18,6 9,-9 9,-15 0,-24 z m 644,-29 c 10,-17 -13,-36 -27,-22 -12,12 -4,33 11,33 5,0 12,-5 16,-11 z m -740,-20 c 10,-17 -13,-36 -27,-22 -12,12 -4,33 11,33 5,0 12,-5 16,-11 z m 69,-39 c 0,-7 -6,-15 -12,-17 -8,-3 -13,4 -13,17 0,13 5,20 13,18 6,-3 12,-11 12,-18 z m 35,-146 c 0,-8 -7,-14 -15,-14 -15,0 -21,21 -9,33 10,9 24,-2 24,-19 z m 302,-81 c -21,-18 -25,-32 -23,-66 2,-25 43,-42 70,-28 25,14 28,56 5,65 -20,8 -34,-1 -34,-21 0,-13 2,-13 16,-2 14,12 16,11 13,-6 -5,-25 -38,-26 -52,-3 -23,36 50,77 81,46 35,-35 -7,-101 -60,-96 -38,4 -73,46 -63,77 8,27 32,51 52,51 12,0 11,-4 -5,-17 z m -62,-73 c 0,-22 50,-60 77,-60 21,0 42,-13 78,-50 l 49,-49 -37,-16 c -51,-21 -162,-19 -213,4 -48,22 -124,87 -124,106 0,8 21,21 48,30 26,8 58,22 72,30 30,17 50,19 50,5 z m 316,-217 c 38,-29 106,-72 151,-95 46,-24 83,-47 83,-52 0,-5 -23,-32 -51,-60 -59,-59 -44,-68 -138,79 -31,50 -79,117 -106,150 -27,33 -40,53 -29,45 12,-8 52,-38 90,-67 z"
         id="path174-2"
         style="fill:#000000;fill-opacity:1;stroke-width:1.86217;stroke:#000000;stroke-opacity:1" />
      <path
         d="m 3601,2653 c -7,-27 -23,-65 -37,-86 -14,-22 -24,-41 -21,-43 7,-7 164,8 178,17 9,5 -3,28 -44,83 -32,42 -59,76 -61,76 -2,0 -9,-21 -15,-47 z m 64,-43 c 21,-28 36,-52 34,-54 -2,-2 -32,-7 -67,-11 l -63,-7 26,47 c 14,27 25,54 25,61 0,22 6,17 45,-36 z"
         id="path176"
         style="fill:#000000;fill-opacity:1;stroke-width:1.86217;stroke:#000000;stroke-opacity:1" />
      <path
         d="m 3625,2590 c -8,-14 3,-30 21,-30 8,0 14,9 14,20 0,21 -24,28 -35,10 z"
         id="path178"
         style="fill:#000000;fill-opacity:1;stroke-width:1.86217;stroke:#000000;stroke-opacity:1" />
      <path
         d="m 2648,2475 c -22,-47 -38,-88 -35,-92 7,-6 177,13 185,22 3,3 -11,22 -31,43 -20,20 -43,54 -52,75 -8,20 -18,37 -21,37 -3,0 -23,-38 -46,-85 z m 103,-41 20,-21 -62,-7 c -34,-3 -65,-4 -68,-1 -3,3 8,31 23,62 l 27,56 21,-34 c 11,-19 29,-43 39,-55 z"
         id="path180"
         style="fill:#000000;fill-opacity:1;stroke-width:1.86217;stroke:#000000;stroke-opacity:1" />
      <path
         d="m 2680,2439 c 0,-25 33,-22 38,4 2,12 -3,17 -17,17 -15,0 -21,-6 -21,-21 z"
         id="path182"
         style="fill:#000000;fill-opacity:1;stroke-width:1.86217;stroke:#000000;stroke-opacity:1" />
      <path
         d="m 3487,2445 c -15,-19 -48,-46 -73,-61 -25,-14 -43,-28 -41,-30 10,-10 172,-72 178,-69 7,5 -22,180 -31,189 -3,3 -18,-10 -33,-29 z m 38,-79 c 8,-66 11,-65 -78,-27 l -39,16 46,33 c 25,18 46,38 46,45 0,7 3,7 9,2 5,-6 13,-36 16,-69 z"
         id="path184"
         style="fill:#000000;fill-opacity:1;stroke-width:1.86217;stroke:#000000;stroke-opacity:1" />
      <path
         d="m 3466,2375 c -6,-17 16,-31 33,-21 13,9 2,36 -14,36 -7,0 -16,-7 -19,-15 z"
         id="path186"
         style="fill:#000000;fill-opacity:1;stroke-width:1.86217;stroke:#000000;stroke-opacity:1" />
      <path
         d="m -919.24395,3006.1705 c 13.29022,-84.2648 -7.55613,-187.5516 -51.57166,-254.008 -11.42712,-17.2531 -17.79972,-32.2945 -14.02688,-34.7277 3.14401,-2.0278 21.69373,9.7194 40.47282,25.8787 44.10042,38.1308 105.50445,138.9707 117.08846,191.6893 8.59731,42.7893 11.80129,101.8247 4.88444,106.2859 -2.51518,1.6222 -14.5108,-1.5848 -26.72401,-6.4753 -21.4759,-8.0361 -21.89906,-8.6751 -23.55535,-50.4693 -0.31427,-23.5086 -5.29601,-56.7742 -10.62866,-74.3102 -9.1657,-28.7433 -6.73496,-49.4623 3.84569,-33.4871 8.46455,12.7801 21.1488,76.6446 21.70486,107.2929 -0.0849,28.3257 2.24886,33.2043 14.02679,34.7277 12.40673,1.1178 13.42254,-6.833 6.71164,-50.8391 -10.15705,-62.7586 -40.52029,-131.6364 -77.49834,-175.2727 -14.15993,-17.3145 -26.61496,-29.3449 -27.02615,-27.2557 -0.41105,2.0891 7.48495,28.9153 17.49719,58.9365 22.79343,68.2883 27.58176,105.3266 20.73693,173.579 l -4.59546,54.034 34.72905,10.4321 c 18.73095,5.2466 42.1053,14.7942 51.38009,20.668 22.97531,14.3648 26.53048,10.2479 28.68321,-25.7953 4.65623,-87.8161 -22.86511,-179.502 -78.30774,-263.2115 -43.16906,-65.1784 -82.85584,-103.4199 -147.76707,-141.8079 -24.4506,-15.2372 -46.3739,-29.3687 -48.0668,-31.9246 -8.4645,-12.7801 27.7519,1.2524 64.2222,25.153 147.56188,95.4298 229.59495,250.4504 223.41436,421.3267 -0.95542,21.5915 -4.86145,41.4381 -8.00543,43.4659 -3.14402,2.0278 -18.51333,-3.5631 -33.89473,-11.8822 -15.80453,-8.958 -44.86233,-20.3118 -65.05645,-23.7028 -20.61742,-4.03 -38.29636,-9.0433 -39.56599,-10.9603 -1.06419,-2.9617 1.76563,-28.4978 6.89299,-57.34 z"
         id="path188"
         style="fill:#000000;fill-opacity:1;stroke-width:1.86217;stroke:#000000;stroke-opacity:1" />
      <path
         d="m 2865,2343 c 2,-16 7,-58 10,-95 4,-38 11,-68 16,-68 14,0 149,109 149,120 0,6 -12,10 -27,10 -31,0 -107,32 -117,49 -15,23 -36,12 -31,-16 z m 79,-32 58,-29 -48,-36 c -35,-27 -50,-33 -55,-24 -5,10 -19,119 -15,118 1,0 27,-13 60,-29 z"
         id="path190"
         style="fill:#000000;fill-opacity:1;stroke-width:1.86217;stroke:#000000;stroke-opacity:1" />
      <path
         d="m 2920,2286 c -13,-17 -6,-36 15,-36 19,0 26,27 11,39 -10,8 -17,7 -26,-3 z"
         id="path192"
         style="fill:#000000;fill-opacity:1;stroke-width:1.86217;stroke:#000000;stroke-opacity:1" />
      <path
         d="m 3260,2319 c -14,-6 -51,-11 -82,-11 -32,-1 -58,-5 -58,-9 0,-6 86,-126 106,-148 9,-10 24,18 53,97 30,84 29,90 -19,71 z m -3,-79 c -12,-33 -24,-60 -27,-60 -6,0 -80,97 -80,104 0,3 21,7 48,9 26,2 55,4 64,5 15,2 14,-4 -5,-58 z"
         id="path194"
         style="fill:#000000;fill-opacity:1;stroke-width:1.86217;stroke:#000000;stroke-opacity:1" />
      <path
         d="m 3203,2255 c -3,-9 -3,-18 0,-22 10,-10 37,6 37,22 0,20 -29,20 -37,0 z"
         id="path196"
         style="fill:#000000;fill-opacity:1;stroke-width:1.86217;stroke:#000000;stroke-opacity:1" />
      <path
         d="m 4370,2168 c -1,-37 -35,-102 -70,-131 -18,-15 -30,-30 -27,-33 9,-10 45,15 70,49 38,51 61,137 37,137 -5,0 -10,-10 -10,-22 z"
         id="path198"
         style="fill:#000000;fill-opacity:1;stroke-width:1.86217;stroke:#000000;stroke-opacity:1" />
      <path
         d="m 4420,2110 c 0,-48 -23,-93 -57,-111 -13,-7 -23,-16 -23,-21 0,-29 68,24 86,68 16,39 18,90 4,99 -6,4 -10,-10 -10,-35 z"
         id="path200"
         style="fill:#000000;fill-opacity:1;stroke-width:1.86217;stroke:#000000;stroke-opacity:1" />
      <path
         d="m 4480,2075 c -1,-28 -7,-61 -15,-75 -26,-46 -21,-50 69,-50 72,0 226,20 279,36 37,12 14,24 -45,24 -55,0 -135,21 -209,54 -13,5 -19,-1 -28,-25 -12,-35 -6,-53 9,-29 5,8 11,19 13,23 1,5 30,-1 64,-12 35,-12 72,-21 83,-21 11,0 20,-4 20,-9 0,-11 -76,-21 -168,-21 -73,0 -74,1 -67,23 14,42 17,109 6,120 -8,8 -11,-2 -11,-38 z"
         id="path202"
         style="fill:#000000;fill-opacity:1;stroke-width:1.86217;stroke:#000000;stroke-opacity:1" />
      <g
         id="g18103"
         transform="matrix(0.27830541,-0.96434821,0.94895518,0.30497706,-1038.2857,2270.1397)"
         style="stroke:#000000;stroke-opacity:1">
        <path
           d="m 623.83556,1979.7239 c -55.54182,3.8658 -150.44165,-10.8953 -156.47576,-24.5316 -6.96242,-15.734 2.7172,-16.3607 52.54171,-5.0203 43.25256,10.5521 124.97462,12.4094 143.62069,3.9189 5.17946,-2.3584 -1.49414,-37.1284 -16.59634,-76.8825 -26.74013,-77.3049 -39.18698,-192.6254 -25.85591,-244.0662 7.86277,-30.0465 9.36283,-29.4692 86.04095,20.0552 77.71398,49.0529 212.93409,95.866 241.93909,82.6587 60.08181,-27.3581 61.65871,-501.9465 2.0249,-594.5203 -10.4267,-17.9374 -14.3212,-9.8627 -25.2239,44.2533 -7.042,34.7139 -18.4767,65.1264 -25.6203,65.8587 -22.93111,1.6196 -124.32331,-64.3779 -154.28461,-101.1468 -38.17471,-46.8921 -72.77171,-130.7017 -76.97713,-188.02057 -2.53008,-36.65681 -7.63585,-48.19511 -19.74382,-50.24356 -28.25201,-4.7796 -33.18245,3.76692 -32.54887,61.45187 1.01223,145.73326 58.17781,260.85586 179.03092,359.58156 l 69.7835,56.4448 -24.5108,51.4903 c -13.3989,28.7864 -30.9413,59.4595 -40.9436,67.795 -24.8275,22.6478 -81.47301,4.3308 -150.32815,-50.016 l -60.42654,-49.363 -35.33385,55.1583 c -29.47507,48.7096 -71.00222,191.1277 -66.61554,231.9802 2.03199,24.2806 -30.96922,11.5812 -81.93128,-33.2692 -48.99783,-43.2243 -80.49306,-91.8978 -56.74122,-88.8498 7.60784,0.3166 16.8572,9.9682 21.03465,19.4086 4.17745,9.4405 27.53291,34.0939 50.53179,55.1288 l 42.64102,37.2966 8.29306,-40.3246 c 17.83715,-86.2603 50.88998,-171.8872 82.79344,-217.9218 18.36316,-26.0058 35.4753,-46.4006 38.4754,-45.2461 3.00011,1.1545 23.5706,19.5142 46.56947,40.5491 46.46189,43.1187 122.53435,82.8366 141.18045,74.3462 6.2154,-2.8302 22.9709,-26.8436 35.2263,-52.5887 l 23.3672,-48.449 -70.7117,-58.5429 C 699.3132,1281.1807 695.49233,1275.3587 645.82702,1163.1223 599.41085,1058.2285 594.62778,1038.9814 595.35279,973.11602 l 1.51188,-72.52512 -94.00539,-23.99054 C 373.67331,843.42344 329.5263,842.10065 283.62431,870.56378 c -37.04311,23.16891 -37.04311,23.16891 -53.28878,-13.544 -19.95895,-45.10431 -14.59232,-100.48033 12.48827,-140.53785 27.54473,-39.00859 42.5114,-44.56333 52.72296,-21.48667 28.31387,63.98526 147.31623,121.96398 450.25952,215.91364 28.6085,8.39821 31.7163,6.9831 59.0458,-26.88635 34.2244,-40.78981 33.9415,-58.30503 -6.9048,-150.61169 -35.7406,-80.76833 -103.55384,-172.13819 -160.05196,-218.24866 -22.07054,-18.93699 -39.06918,-37.66287 -36.31811,-42.69644 4.1097,-13.21398 27.78786,3.73069 83.85569,60.11943 70.17398,71.39056 115.91668,143.82342 146.72688,233.13828 24.991,70.53942 29.2759,77.41032 46.8861,69.39157 14.50251,-6.60364 16.39901,-27.63187 6.9802,-93.91949 -20.7281,-148.09827 -63.68,-250.78871 -161.23947,-384.06665 -18.74772,-25.4912 -18.176,-27.01183 2.7172,-16.36079 60.71537,30.32692 157.36867,245.93661 178.09668,394.03487 7.3131,55.9038 19.5566,103.2611 25.5569,105.57006 18.0007,6.927 42.4835,-92.44175 44.318,-172.67561 0.011,-36.55122 -4.6637,-94.91906 -12.8373,-130.26631 -7.7096,-34.29831 -8.1339,-60.57124 -2.1337,-58.26225 33.0012,12.69945 45.14751,220.15836 17.3419,326.08129 -12.2953,50.96911 -4.1953,100.21312 16.5226,90.77938 21.75371,-9.90552 71.17761,-171.04282 69.40051,-225.68657 -1.7771,-54.64374 7.3707,-78.97381 19.903,-50.65248 19.0307,43.0065 -29.3971,228.89612 -75.1974,291.34078 -7.5739,11.01064 -10.64781,23.75289 -5.791,29.1031 14.5703,16.05076 90.2362,-80.15789 105.1748,-133.59101 16.0822,-56.47441 34.4056,-57.25614 22.9311,-1.61956 -8.9723,44.41498 -67.8488,127.93737 -113.5017,162.58858 -68.65781,50.16752 3.9564,51.13082 87.3656,0.54765 39.1149,-24.11235 47.8663,-26.83687 42.149,-11.63062 -6.2891,16.72695 -60.2631,43.82449 -164.45801,81.18699 l -37.6487,13.3623 23.3834,72.5319 c 54.65761,162.8954 64.87351,380.0553 28.2708,550.478 l -18.4088,87.781 -49.5755,-5.1525 c -67.32711,-5.8913 -178.43871,-46.0381 -240.68802,-88.2694 l -50.92818,-33.5232 -0.58356,74.623 c -0.29474,55.5871 8.12794,97.1225 33.79829,163.5718 37.05926,97.8118 36.48753,99.3325 -46.12896,106.7046 z m 287.94913,-834.3607 c 13.4785,-79.2342 11.9445,-91.1387 -9.8093,-81.2332 -8.2871,3.7736 -33.43151,-2.4211 -57.32481,-14.2267 -31.8576,-15.7408 -45.4996,-29.6936 -56.781,-63.62585 -13.2455,-35.55828 -22.0307,-44.1609 -57.21126,-53.34738 l -42.21667,-11.0239 0.10169,33.98165 c 0.49217,48.92748 51.65754,161.74108 89.79834,197.30598 38.6051,36.614 98.5335,73.6006 110.9643,67.9403 5.17941,-2.3584 14.75741,-36.9668 22.47871,-75.7709 z m 58.6393,-162.81285 c 6.289,-16.72684 9.5779,-34.60826 6.793,-40.90192 -2.3209,-5.24475 -10.4666,7.28646 -18.9349,27.52632 -25.2638,69.47725 -108.91611,77.32125 -137.23001,13.3358 -18.1023,-40.90851 -10.4546,-65.81588 26.8374,-82.7967 32.1128,-14.62251 63.61391,-2.50024 70.50271,27.13063 6.5321,26.01226 -33.72631,53.16586 -52.22501,33.86282 -18.0345,-18.25425 -10.1379,-36.97343 9.6119,-23.28122 8.8927,6.03314 17.53651,5.87809 19.25161,1.31615 6.2891,-16.72694 -18.17601,-27.0118 -37.85791,-18.04961 -45.5792,20.75437 -25.0883,89.56208 24.4532,83.38728 91.36781,-10.09675 87.06661,-137.94848 -4.1199,-144.31812 -37.0033,-2.05496 -75.9429,42.1422 -77.8792,88.39443 -3.2211,40.53584 27.0968,80.92339 67.8134,91.36989 35.75231,7.6658 89.83391,-22.0011 102.98371,-56.97575 z M 415.43173,816.84705 c -50.89429,-22.19598 -106.10749,-62.59007 -117.24737,-87.7646 -20.88727,-47.20225 -68.15379,25.99247 -57.69913,91.80839 4.49426,38.28296 4.49426,38.28296 42.8223,20.83036 23.82553,-10.84885 63.57994,-13.82738 104.04753,-9.56892 83.47112,8.6225 84.50701,8.15084 28.07667,-15.30523 z"
           id="path206"
           style="fill:#000000;fill-opacity:1;stroke-width:1.86217;stroke:#000000;stroke-opacity:1" />
        <path
           d="m 863.37148,1682.8681 c -36.6408,-34.9877 -77.8097,-119.5857 -66.4488,-136.1015 4.3587,-7.0259 16.3931,8.9194 30.3179,40.3876 12.5324,28.3213 34.4217,63.7246 48.9919,79.7753 37.46161,39.6552 26.20821,53.6014 -12.861,15.9386 z"
           id="path208"
           style="fill:#000000;fill-opacity:1;stroke-width:1.86217;stroke:#000000;stroke-opacity:1" />
        <path
           d="m 906.56819,1597.6634 c -6.4983,-14.6852 -26.74601,-40.7536 -43.85231,-56.9099 -23.463,-22.0838 -27.1763,-30.4754 -16.925,-32.6226 7.6079,0.3166 25.3934,12.3827 39.4995,27.3845 13.53441,16.5225 27.28391,27.9057 31.42751,26.019 10.3589,-4.7169 22.6998,-117.4612 22.0323,-186.4734 -1.3468,-64.9221 3.3007,-90.9839 13.0482,-68.9561 17.1739,38.8107 -4.6212,304.5747 -25.339,314.0084 -5.1796,2.3584 -13.393,-7.7648 -19.8912,-22.4499 z"
           id="path210"
           style="fill:#000000;fill-opacity:1;stroke-width:1.86217;stroke:#000000;stroke-opacity:1" />
        <path
           d="m 774.00778,1669.367 c -28.0369,-9.9188 -55.48431,-131.0117 -32.69466,-141.389 6.21536,-2.8301 10.50036,4.0408 10.42666,17.9375 0.034,11.3273 7.7434,45.6255 16.7039,74.3131 9.4247,29.7364 11.5642,51.4474 5.5641,49.1384 z"
           id="path214"
           style="fill:#000000;fill-opacity:1;stroke-width:1.86217;stroke:#000000;stroke-opacity:1" />
      </g>
      <path
         d="m 1845.9946,-731.32082 c -56,-22 -83,-89 -56,-141 22,-42 53,-62 99,-62 87,0 129,104 70,170 -28,31 -81,46 -113,33 z m 90,-31 c 22,-18 22,-18 -18,-14 -34,3 -43,0 -57,-22 -16,-24 -16,-28 -1,-51 9,-14 25,-25 35,-25 26,0 35,30 15,49 -15,15 -16,14 -9,-6 5,-17 2,-23 -9,-23 -20,0 -29,16 -21,39 19,61 106,7 91,-56 -8,-28 -56,-52 -92,-45 -34,6 -74,57 -74,93 0,64 89,103 140,61 z"
         id="path218"
         style="fill:#ffffff;fill-opacity:1;stroke-width:1.86217;stroke:none;stroke-opacity:1" />
      <path
         d="m 4630,1479 c 0,-5 5,-7 10,-4 6,3 10,8 10,11 0,2 -4,4 -10,4 -5,0 -10,-5 -10,-11 z"
         id="path228"
         style="fill:#000000;fill-opacity:1;stroke-width:1.86217;stroke:#000000;stroke-opacity:1" />
      <g
         id="g18745"
         style="stroke:#000000;stroke-opacity:1">
        <path
           d="m -58.773693,25.383971 c -9.8944,-56.05946 -58.953567,-151.692391 -84.452437,-163.158801 -6.37472,-2.8666 -32.18569,10.78268 -57.3122,30.23018 -54.0303,44.883041 -151.95046,87.598971 -222.56197,98.6716211 -65.33074,9.05496001 -78.99086,2.91225 -65.06737,-28.1615801 17.1996,-38.38532 30.44688,-216.906981 23.00379,-300.414411 -19.13324,-216.14246 -128.00215,-429.81207 -293.6276,-577.86283 -70.99542,-63.76995 -76.55689,-90.42875 -18.14495,-93.81035 45.93743,-2.4025 110.85289,-32.5079 152.68362,-69.6998 39.69152,-34.8597 91.93185,-134.3539 75.53972,-141.7252 -5.46404,-2.4571 -19.75411,19.6672 -32.85857,48.9132 -31.1231,69.4591 -94.21143,122.3479 -163.31945,137.3909 -59.36555,12.8355 -59.36555,12.8355 -63.28896,-17.4791 -2.145,-19.632 2.86082,-28.3619 30.12655,-50.1417 91.26473,-74.259 144.58747,-212.7977 122.24994,-321.6704 -10.62178,-51.9942 -24.82598,-49.5969 -17.75525,2.9966 10.53591,71.7212 -5.64981,156.6822 -38.23346,212.3075 -27.1683,45.9815 -92.75664,114.2174 -104.59541,108.8937 -24.5882,-11.0569 -29.33064,-39.5436 -14.72848,-86.7835 34.66259,-113.9873 7.85755,-244.6345 -69.2005,-336.3867 -41.85386,-50.6655 -86.02444,-81.5092 -83.28664,-58.3163 0.27494,6.7122 8.6543,14.8726 17.76104,18.9677 30.05224,13.514 101.60332,112.6726 116.50354,160.0023 18.59162,61.0685 18.61473,148.926 0.10072,209.7801 -14.60216,47.2399 -16.33186,48.6583 -37.27736,39.2395 -15.48146,-6.9618 -23.81789,-24.9857 -30.33875,-64.1549 -15.50458,-94.8191 -81.90947,-188.3694 -173.52677,-242.7452 -62.2924,-36.7965 -210.4029,-62.77 -198.9679,-34.568 0.5928,3.5608 30.2785,8.1253 64.8354,11.586 124.7508,12.1747 234.36116,102.0939 278.42028,228.421 23.82944,68.9144 23.15077,85.0805 -5.5755,93.0264 -12.38286,3.2164 -25.22394,-4.7542 -51.95718,-35.4431 -50.1415,-56.5886 -159.9236,-107.0537 -233.6337,-106.1592 -57.1834,0.6398 -114.7276,14.2943 -158.9296,37.2428 -48.9815,26.2897 -25.2611,27.0736 42.5697,2.6716 112.3077,-40.6385 223.5387,-20.2682 314.3428,57.8998 44.94665,38.8792 47.95361,46.8199 30.1125,69.5435 -9.7854,12.071 -27.2228,11.9163 -73.7101,0.8946 -74.4433,-17.0045 -141.9133,-5.6173 -200.1791,34.0669 -50.4363,34.4202 -82.8424,72.5559 -67.3609,79.5177 5.464,2.4571 12.884,-1.8929 16.1601,-9.2044 22.1138,-49.3526 133.5537,-100.264 205.3079,-94.3515 74.8957,6.2271 88.7391,16.8446 78.4154,59.4199 -6.1857,23.5726 -1.8528,52.9732 9.1728,82.08911 l 18.3596,44.4929 -44.9665,58.84166 c -81.0583,105.20283 -192.7186,183.46736 -316.2722,222.34299 -45.8887,14.50344 -63.3691,24.21225 -55.9004,31.96314 6.0569,6.01792 19.6311,31.8876 30.0638,57.44268 l 20.6822,46.63537 49.9838,-23.6428 c 26.7216,-13.23977 81.528,-50.08719 119.991,-82.20501 l 70.9178,-58.15268 32.1056,30.90865 c 19.5824,19.78673 60.8377,44.92703 109.1034,66.63129 65.56854,29.48503 87.24143,34.8386 142.19396,34.29379 35.28429,-0.60459 66.19849,1.21803 67.20081,3.86493 1.00232,2.6469 -6.40609,50.92559 -15.77042,106.01135 -13.95486,84.86602 -25.78206,123.47104 -76.47019,239.03651 -48.23105,110.081861 -59.013,141.470301 -52.18005,155.523831 20.08932,43.0745401 98.92001,123.54493 159.57438,163.997189 64.70657,41.17639 101.04189,55.31958 225.02236,81.42307 22.99308,4.84915 26.40955,11.87592 31.88515,58.26171 4.10671,34.78935 -0.61839,72.19571 -14.26694,109.9817 -19.92584,59.12113 -9.35856,77.05011 14.39327,24.04181 19.24718,-42.95501 24.23565,-117.57791 11.06514,-166.32588 l -11.9849,-41.6263 L -592.78289,169.58 C -717.08123,146.62782 -827.5048,80.500951 -897.5524,-14.687329 l -34.06731,-46.06593 39.1788,-80.111781 c 45.00364,-90.6695 80.57689,-204.24717 100.03295,-318.48394 20.09179,-120.53942 22.50595,-116.15955 -59.62645,-113.56191 -62.46415,2.65741 -77.35281,-0.74349 -152.02809,-34.32367 -56.4618,-25.38988 -90.4317,-47.25407 -108.6939,-67.54523 -25.3213,-28.95598 -25.413,-31.19337 -5.0231,-57.16321 11.9246,-14.40328 29.7657,-37.1269 38.6405,-49.6074 17.3399,-24.04706 17.3399,-24.04706 66.3817,5.69281 53.09408,30.46399 128.63132,52.35281 191.27876,54.17017 l 40.24717,0.52905 -4.97444,-45.06234 c -1.91878,-25.02077 -10.12641,-72.63511 -17.78416,-106.82512 -8.56843,-34.59953 -13.81203,-64.40968 -12.58349,-67.15149 0.81903,-1.82787 24.45362,18.68299 54.14507,45.21177 229.61041,215.25675 327.53142,521.73309 262.6424,825.274191 -10.23208,44.81276 -15.36669,83.13306 -12.63467,84.3616 2.73202,1.22854 33.9641,-0.10017 67.33539,-3.76117 82.35862,-7.9863499 189.7034,-49.75846 245.05388,-95.14592 25.53603,-20.361431 48.61497,-35.239251 53.16834,-33.191681 10.92809,4.91417 52.971027,82.018801 64.271477,117.84687111 5.6044,16.79533989 11.03129,51.08025989 12.03939,75.69151989 2.28536,33.970309 4.79116,40.587569 12.25406,26.374099 4.91417,-10.967229 4.35852,-46.355909 -0.47557,-77.079989 z M -847.34399,-742.10337 c -71.0268,-9.97776 -112.73452,-24.34065 -159.95501,-53.26149 l -47.63,-28.0069 23.7519,-53.0083 23.7518,-53.0083 41.1149,10.80204 c 28.45712,7.30624 53.40612,5.34832 84.17997,-7.16732 39.51401,-17.37004 43.56622,-16.64592 49.76342,3.71026 13.39674,43.35926 32.64144,164.01821 28.13679,174.07151 -2.8666,6.39755 -22.44321,8.57517 -43.11377,5.8685 z m -49.31429,-200.06598 c -34.3249,13.11497 -52.1718,13.87423 -78.58135,1.99831 -26.40957,-11.87591 -37.70427,-25.73963 -50.73437,-60.14936 -9.522,-25.1455 -14.5824,-50.4809 -12.1253,-55.9645 2.8666,-6.3976 11.3376,4.0002 17.9444,23.4424 27.56375,72.78982 130.82494,84.08578 160.71949,17.3684 13.51397,-30.1599 -3.39089,-82.7833 -30.71111,-95.0687 -16.39213,-7.3713 -75.80061,15.3277 -83.58138,32.6925 -9.41883,21.0205 8.07305,55.2404 31.15777,62.327 25.31558,6.9916 53.16834,-33.1917 35.90846,-50.836 -14.43621,-14.1783 -20.76221,-4.944 -12.2425,17.5546 4.51044,11.9111 1.05104,14.7478 -12.8353,13.9938 -23.31094,-1.6978 -32.24017,-23.2825 -17.85846,-43.1694 16.01977,-23.5427 66.376,-16.2716 76.3992,10.1974 10.02319,26.469 -7.49428,68.00568 -31.25767,77.08528 -53.71821,19.76736 -115.9248,-36.75608 -103.6022,-96.00208 18.32496,-87.2932 151.68133,-72.3467 180.06992,20.5795 15.08351,51.8044 -13.22169,102.76513 -68.6696,123.95085 z m -273.37892,243.82754 c -48.3829,51.8149 -117.2532,105.3979 -177.1141,138.87431 l -26.2205,14.56321 -23.1392,-41.15176 -21.819,-41.65618 52.8992,-17.93949 c 105.7067,-38.11636 186.324,-88.61307 270.9391,-172.45087 l 27.0824,-26.25457 -24.9374,45.88663 c -14.6079,25.27561 -48.97,70.21841 -77.6905,100.12872 z"
           id="path204"
           style="fill:#000000;fill-opacity:1;stroke-width:1.86217;stroke:#000000;stroke-opacity:1" />
        <path
           d="m -543.27543,-280.33506 c -6.35491,-100.5875 -30.74001,-204.89051 -67.96041,-295.19975 -34.1218,-80.13115 -109.32135,-202.89219 -122.52324,-197.84797 -3.96056,1.51326 -4.63345,39.64375 -1.38871,86.12445 8.2679,103.64391 -6.90394,235.18044 -36.88435,321.62475 -12.32836,37.28157 -20.46994,67.66117 -17.73791,68.88971 1.82134,0.81903 26.58706,-5.61366 53.08247,-13.46472 26.90493,-8.76498 68.28899,-13.21513 92.60226,-8.8704 24.31326,4.34472 47.71585,8.27994 52.67874,9.41357 11.24595,1.76285 -38.283,-148.98572 -63.24356,-190.95651 -22.1369,-38.50485 -31.87937,-36.29735 -30.13811,6.213 1.14268,16.98516 -4.08358,53.06807 -11.08826,78.46847 -7.00467,25.40039 -11.0511,46.64063 -9.22976,47.45966 1.82135,0.81902 18.75758,-0.34975 38.33418,-2.52737 37.33186,-5.17427 43.79244,-22.03463 7.68913,-19.60217 -23.62882,1.45349 -23.72046,-0.78389 -12.03362,-53.72717 4.77382,-25.30549 6.50352,-26.72385 19.21002,-11.12717 13.70883,18.24359 41.00346,106.28556 36.08929,117.2528 -1.63806,3.65574 -15.02324,4.22519 -30.3214,1.73822 -15.79933,-3.81042 -47.94208,-2.89123 -71.47925,0.79965 l -43.9328,7.69638 10.0975,-37.18666 c 21.74141,-80.26646 37.87264,-199.29261 36.89591,-277.69606 l 0.16017,-83.38263 20.95129,31.38318 c 60.53134,92.00707 115.79927,251.92488 127.85023,371.54511 9.95467,112.08903 8.31661,115.74478 -35.43867,105.95157 -48.30866,-11.84077 -142.50605,-9.17811 -194.5862,6.93351 -30.04646,8.45038 -36.96528,14.12381 -26.4467,19.95192 8.19607,3.68563 20.26105,3.62061 25.04065,0.27947 26.94786,-18.62847 145.27521,-21.42119 218.80781,-4.82617 34.23903,6.612 39.56272,-5.26917 34.9433,-85.31067 z"
           id="path230"
           style="fill:#000000;fill-opacity:1;stroke-width:1.86217;stroke:#000000;stroke-opacity:1" />
      </g>
      <path
         d="m 4705,1470 c 3,-5 8,-10 11,-10 2,0 4,5 4,10 0,6 -5,10 -11,10 -5,0 -7,-4 -4,-10 z"
         id="path232"
         style="fill:#000000;fill-opacity:1;stroke-width:1.86217;stroke:#000000;stroke-opacity:1" />
      <path
         d="m 4560,1450 c 0,-5 5,-10 10,-10 6,0 10,5 10,10 0,6 -4,10 -10,10 -5,0 -10,-4 -10,-10 z"
         id="path236"
         style="fill:#000000;fill-opacity:1;stroke-width:1.86217;stroke:#000000;stroke-opacity:1" />
      <path
         d="m 4614,1439 c -24,-12 -54,-59 -54,-84 0,-32 33,-86 61,-100 44,-23 83,-19 118,14 25,23 31,37 31,71 0,23 -5,50 -10,61 -22,41 -98,61 -146,38 z m 107,-30 24,-20 -23,11 c -68,33 -126,-56 -60,-91 25,-13 54,10 45,35 -10,25 -29,20 -22,-5 8,-25 -12,-22 -29,4 -17,27 16,54 51,41 68,-24 45,-116 -31,-122 -47,-4 -96,40 -96,88 0,68 88,106 141,59 z"
         id="path238"
         style="fill:#000000;fill-opacity:1;stroke-width:1.86217;stroke:#000000;stroke-opacity:1" />
      <path
         d="m 4770,1430 c 0,-5 5,-10 10,-10 6,0 10,5 10,10 0,6 -4,10 -10,10 -5,0 -10,-4 -10,-10 z"
         id="path240"
         style="fill:#000000;fill-opacity:1;stroke-width:1.86217;stroke:#000000;stroke-opacity:1" />
      <path
         d="m 4520,1400 c 0,-5 5,-10 11,-10 5,0 7,5 4,10 -3,6 -8,10 -11,10 -2,0 -4,-4 -4,-10 z"
         id="path244"
         style="fill:#000000;fill-opacity:1;stroke-width:1.86217;stroke:#000000;stroke-opacity:1" />
      <path
         d="m 4800,1360 c 0,-5 5,-10 10,-10 6,0 10,5 10,10 0,6 -4,10 -10,10 -5,0 -10,-4 -10,-10 z"
         id="path252"
         style="fill:#000000;fill-opacity:1;stroke-width:1.86217;stroke:#000000;stroke-opacity:1" />
      <path
         d="m 4500,1320 c 0,-5 5,-10 10,-10 6,0 10,5 10,10 0,6 -4,10 -10,10 -5,0 -10,-4 -10,-10 z"
         id="path254"
         style="fill:#000000;fill-opacity:1;stroke-width:1.86217;stroke:#000000;stroke-opacity:1" />
      <path
         d="m 4790,1284 c 0,-8 5,-12 10,-9 6,4 8,11 5,16 -9,14 -15,11 -15,-7 z"
         id="path256"
         style="fill:#000000;fill-opacity:1;stroke-width:1.86217;stroke:#000000;stroke-opacity:1" />
      <path
         d="m 4530,1250 c 0,-5 5,-10 10,-10 6,0 10,5 10,10 0,6 -4,10 -10,10 -5,0 -10,-4 -10,-10 z"
         id="path258"
         style="fill:#000000;fill-opacity:1;stroke-width:1.86217;stroke:#000000;stroke-opacity:1" />
      <path
         d="m 4745,1230 c -3,-5 -1,-10 4,-10 6,0 11,5 11,10 0,6 -2,10 -4,10 -3,0 -8,-4 -11,-10 z"
         id="path260"
         style="fill:#000000;fill-opacity:1;stroke-width:1.86217;stroke:#000000;stroke-opacity:1" />
      <path
         d="m 4590,1210 c 0,-5 5,-10 10,-10 6,0 10,5 10,10 0,6 -4,10 -10,10 -5,0 -10,-4 -10,-10 z"
         id="path262"
         style="fill:#000000;fill-opacity:1;stroke-width:1.86217;stroke:#000000;stroke-opacity:1" />
      <path
         d="m 4670,1200 c 0,-5 5,-10 10,-10 6,0 10,5 10,10 0,6 -4,10 -10,10 -5,0 -10,-4 -10,-10 z"
         id="path264"
         style="fill:#000000;fill-opacity:1;stroke-width:1.86217;stroke:#000000;stroke-opacity:1" />
      <path
         d="m 2910,950 c 0,-5 5,-10 10,-10 6,0 10,5 10,10 0,6 -4,10 -10,10 -5,0 -10,-4 -10,-10 z"
         id="path266"
         style="fill:#000000;fill-opacity:1;stroke-width:1.86217;stroke:#000000;stroke-opacity:1" />
      <path
         d="m 2990,940 c 0,-5 5,-10 10,-10 6,0 10,5 10,10 0,6 -4,10 -10,10 -5,0 -10,-4 -10,-10 z"
         id="path268"
         style="fill:#000000;fill-opacity:1;stroke-width:1.86217;stroke:#000000;stroke-opacity:1" />
      <path
         d="m 2846,921 c -4,-5 -2,-12 3,-15 5,-4 12,-2 15,3 4,5 2,12 -3,15 -5,4 -12,2 -15,-3 z"
         id="path270"
         style="fill:#000000;fill-opacity:1;stroke-width:1.86217;stroke:#000000;stroke-opacity:1" />
      <path
         d="m 2906,905 c -16,-8 -35,-23 -42,-33 -30,-38 -7,-129 37,-153 30,-16 85,-14 113,4 104,68 1,241 -108,182 z m 101,-28 c 11,-11 8,-12 -20,-9 -22,2 -39,-2 -50,-13 -33,-33 -12,-91 30,-83 23,4 31,48 9,48 -10,0 -13,-6 -10,-15 4,-10 0,-15 -11,-15 -12,0 -16,7 -13,28 2,21 9,28 29,30 59,7 81,-69 32,-108 -34,-27 -77,-21 -112,15 -57,57 -11,154 68,141 19,-3 41,-11 48,-19 z"
         id="path272"
         style="fill:#000000;fill-opacity:1;stroke-width:1.86217;stroke:#000000;stroke-opacity:1" />
      <path
         d="m 3050,890 c 0,-5 5,-10 10,-10 6,0 10,5 10,10 0,6 -4,10 -10,10 -5,0 -10,-4 -10,-10 z"
         id="path274"
         style="fill:#000000;fill-opacity:1;stroke-width:1.86217;stroke:#000000;stroke-opacity:1" />
      <path
         d="m 2800,860 c 0,-5 5,-10 10,-10 6,0 10,5 10,10 0,6 -4,10 -10,10 -5,0 -10,-4 -10,-10 z"
         id="path276"
         style="fill:#000000;fill-opacity:1;stroke-width:1.86217;stroke:#000000;stroke-opacity:1" />
      <path
         d="m 3085,831 c -3,-5 -1,-12 5,-16 5,-3 10,1 10,9 0,18 -6,21 -15,7 z"
         id="path278"
         style="fill:#000000;fill-opacity:1;stroke-width:1.86217;stroke:#000000;stroke-opacity:1" />
      <path
         d="m 2790,790 c 0,-5 5,-10 11,-10 5,0 7,5 4,10 -3,6 -8,10 -11,10 -2,0 -4,-4 -4,-10 z"
         id="path280"
         style="fill:#000000;fill-opacity:1;stroke-width:1.86217;stroke:#000000;stroke-opacity:1" />
      <path
         d="m 3070,750 c 0,-5 5,-10 10,-10 6,0 10,5 10,10 0,6 -4,10 -10,10 -5,0 -10,-4 -10,-10 z"
         id="path282"
         style="fill:#000000;fill-opacity:1;stroke-width:1.86217;stroke:#000000;stroke-opacity:1" />
      <path
         d="m 2815,720 c -3,-5 -1,-10 4,-10 6,0 11,5 11,10 0,6 -2,10 -4,10 -3,0 -8,-4 -11,-10 z"
         id="path284"
         style="fill:#000000;fill-opacity:1;stroke-width:1.86217;stroke:#000000;stroke-opacity:1" />
      <path
         d="m 3025,690 c -3,-5 -1,-10 4,-10 6,0 11,5 11,10 0,6 -2,10 -4,10 -3,0 -8,-4 -11,-10 z"
         id="path286"
         style="fill:#000000;fill-opacity:1;stroke-width:1.86217;stroke:#000000;stroke-opacity:1" />
      <path
         d="m 2880,674 c 0,-8 5,-12 10,-9 6,4 8,11 5,16 -9,14 -15,11 -15,-7 z"
         id="path288"
         style="fill:#000000;fill-opacity:1;stroke-width:1.86217;stroke:#000000;stroke-opacity:1" />
      <path
         d="m 2955,671 c -3,-5 -1,-12 5,-16 5,-3 10,1 10,9 0,18 -6,21 -15,7 z"
         id="path290"
         style="fill:#000000;fill-opacity:1;stroke-width:1.86217;stroke:#000000;stroke-opacity:1" />
      <rect
         style="fill:none;fill-opacity:1;stroke:#ffffff;stroke-width:10.5572;stroke-miterlimit:4;stroke-dasharray:none;stroke-dashoffset:0;stroke-opacity:1"
         id="rect20096"
         width="243.37956"
         height="246.99146"
         x="-2154.4429"
         y="207.1579"
         transform="matrix(-0.8390546,0.54404721,0.54267797,0.83994084,0,0)" />
      <path
         sodipodi:type="star"
         style="fill:none;fill-opacity:1;stroke:#ffffff;stroke-width:1.153;stroke-miterlimit:4;stroke-dasharray:none;stroke-dashoffset:0;stroke-opacity:1"
         id="path20476"
         inkscape:flatsided="false"
         sodipodi:sides="3"
         sodipodi:cx="241.3152"
         sodipodi:cy="235.48723"
         sodipodi:r1="34.830719"
         sodipodi:r2="17.415359"
         sodipodi:arg1="-1.5707963"
         sodipodi:arg2="-0.52359878"
         inkscape:rounded="0"
         inkscape:randomized="0"
         d="m 241.3152,200.65651 15.08214,26.12304 15.08215,26.12304 -30.16429,0 -30.16429,0 15.08215,-26.12304 z"
         transform="matrix(-7.6276362,4.9457979,5.004759,7.7462169,2529.3227,-3873.0224)"
         inkscape:transform-center-y="-1.5091983" />
      <path
         d="m 1551.9472,-1063.2578 c 11.5847,3.8848 19.6101,19.5424 16.0509,31.315 -4.2713,14.1271 -18.7034,19.6603 -30.288,15.7754 -13.9017,-4.6618 -20.3219,-17.1878 -16.0508,-31.315 3.5592,-11.7726 16.3863,-20.4373 30.2879,-15.7754 z"
         id="path23790"
         style="fill:#ffffff;fill-opacity:1;stroke-width:1.86218;stroke:#ffffff;stroke-opacity:1" />
      <path
         d="m 1525.2867,-890.67172 c 11.5846,3.88488 19.61,19.54247 16.0508,31.31509 -4.2712,14.12716 -18.7033,19.66024 -30.2879,15.77535 -13.9017,-4.66186 -20.322,-17.18774 -16.0509,-31.3149 3.5593,-11.7726 16.3864,-20.43741 30.288,-15.77554 z"
         id="path23792"
         style="fill:#ffffff;fill-opacity:1;stroke-width:1.86218;stroke:#ffffff;stroke-opacity:1" />
      <path
         d="m 1571.6935,-706.54868 c 13.7202,-3.17864 23.8812,5.41523 20.322,17.18785 -4.2712,14.12716 -19.4152,22.01487 -30.9999,18.12999 -13.9016,-4.66187 -21.7456,-12.47886 -20.322,-17.18785 2.1356,-7.06353 14.9627,-15.72832 30.9999,-18.12999 z"
         id="path23794"
         style="fill:#ffffff;fill-opacity:1;stroke-width:1.86218;stroke:#ffffff;stroke-opacity:1" />
      <path
         d="m 1819.1658,-1271.8695 c 13.7202,-3.1788 22.4574,10.1243 16.0507,31.3149 -6.4067,21.1906 -20.8387,26.7239 -30.2879,15.7755 -11.7661,-11.7255 -17.4745,-26.6061 -16.0508,-31.3151 1.4237,-4.7089 14.2508,-13.3737 30.288,-15.7753 z"
         id="path23796"
         style="fill:#ffffff;fill-opacity:1;stroke-width:1.86218;stroke:#ffffff;stroke-opacity:1" />
      <path
         d="m 2015.1986,-1245.0292 c 11.5847,3.8849 19.6102,19.5423 16.0509,31.315 -4.2712,14.1272 -18.7033,19.6603 -30.288,15.7755 -13.9017,-4.662 -20.322,-17.1879 -16.0508,-31.315 3.5593,-11.7726 16.3862,-20.4374 30.2879,-15.7755 z"
         id="path23800"
         style="fill:#ffffff;fill-opacity:1;stroke-width:1.86218;stroke:#ffffff;stroke-opacity:1" />
      <path
         d="m 1904.997,-542.91166 c 11.0542,14.07995 10.7052,32.11551 0.195,41.55717 -30.8185,25.97047 -42.5844,14.24513 -29.771,-28.13624 5.6949,-18.83623 20.1269,-24.36935 29.576,-13.42093 z"
         id="path23802"
         style="fill:#ffffff;fill-opacity:1;stroke-width:1.86218;stroke:#ffffff;stroke-opacity:1" />
      <path
         d="m 2156.0286,-1120.0052 c 11.5847,3.8849 19.61,19.5424 16.0508,31.315 -4.2712,14.1271 -18.7033,19.6604 -30.2879,15.7754 -13.9017,-4.6618 -20.3219,-17.1879 -16.0509,-31.3149 3.5593,-11.7726 16.3864,-20.4374 30.288,-15.7755 z"
         id="path23804"
         style="fill:#ffffff;fill-opacity:1;stroke-width:1.86218;stroke:#ffffff;stroke-opacity:1" />
      <path
         d="m 2076.0469,-602.24651 c 11.5847,3.88488 19.6102,19.54238 16.0509,31.3151 -4.2712,14.12706 -18.7034,19.66023 -30.288,15.77534 -13.9017,-4.66187 -20.3219,-17.18784 -16.0509,-31.31489 3.5593,-11.77271 16.3864,-20.43743 30.288,-15.77555 z"
         id="path23806"
         style="fill:#ffffff;fill-opacity:1;stroke-width:1.86218;stroke:#ffffff;stroke-opacity:1" />
      <path
         d="m 2176.0804,-748.06331 c 11.5845,3.88486 19.61,19.54228 16.0508,31.3149 -4.2711,14.12716 -18.7034,19.66031 -30.288,15.77545 -13.9016,-4.66187 -20.322,-17.18784 -16.0508,-31.315 3.5593,-11.77261 16.3863,-20.43722 30.288,-15.77535 z"
         id="path23810"
         style="fill:#ffffff;fill-opacity:1;stroke-width:1.86218;stroke:#ffffff;stroke-opacity:1" />
      <path
         d="m 2119.7753,-615.2665 c -12.1371,-0.90576 -23.7097,-14.14522 -23.145,-26.47924 0.6774,-14.80078 13.2662,-23.76216 25.4033,-22.85635 14.5646,1.08684 23.8225,11.67862 23.145,26.47923 -0.5646,12.33392 -10.839,23.9433 -25.4033,22.85636 z"
         id="path23812"
         style="fill:#ffffff;fill-opacity:1;stroke-width:1.86218;stroke:#ffffff;stroke-opacity:1" />
      <path
         d="m 2200.6351,-788.85756 c -12.1369,-0.90568 -23.7094,-14.14546 -23.1449,-26.47933 0.6777,-14.80075 13.2665,-23.76213 25.4033,-22.85641 14.5647,1.08683 23.8226,11.67858 23.1451,26.47937 -0.5646,12.33392 -10.8389,23.94339 -25.4035,22.85637 z"
         id="path23814"
         style="fill:#ffffff;fill-opacity:1;stroke-width:1.86218;stroke:#ffffff;stroke-opacity:1" />
      <path
         d="m 2189.4451,-986.0918 c -12.137,-0.9058 -23.7095,-14.1456 -23.145,-26.4795 0.6776,-14.8008 13.2664,-23.7621 25.4034,-22.8563 14.5644,1.0869 23.8225,11.6785 23.145,26.4793 -0.5647,12.33388 -10.839,23.94335 -25.4034,22.8565 z"
         id="path23816"
         style="fill:#ffffff;fill-opacity:1;stroke-width:1.86218;stroke:#ffffff;stroke-opacity:1" />
      <path
         d="m 2094.3761,-1124.5811 c -12.4758,6.4946 -24.387,0.6554 -23.8225,-11.6786 0.6776,-14.8009 13.3793,-26.2291 25.5164,-25.3233 14.5645,1.087 24.0482,6.7451 23.8225,11.6786 -0.3388,7.4004 -10.6131,19.0098 -25.5164,25.3233 z"
         id="path23818"
         style="fill:#ffffff;fill-opacity:1;stroke-width:1.86218;stroke:#ffffff;stroke-opacity:1" />
      <path
         d="m 1993.3228,-513.31832 c -12.4757,6.49474 -24.1611,-4.27839 -23.1447,-26.47933 1.0163,-22.20107 13.6049,-31.16254 25.4033,-22.85645 14.2258,8.48735 23.3707,21.54591 23.1449,26.4795 -0.2258,4.93342 -10.5002,16.54288 -25.4035,22.85628 z"
         id="path23820"
         style="fill:#ffffff;fill-opacity:1;stroke-width:1.86218;stroke:#ffffff;stroke-opacity:1" />
      <path
         d="m 1928.4094,-1223.5992 c -12.1369,-0.9057 -23.7093,-14.1455 -23.0319,-28.9461 0.5646,-12.3339 12.9276,-16.3619 24.7258,-8.0557 14.2258,8.4873 23.3707,21.5458 23.0319,28.9461 -0.2258,4.9337 -10.1613,9.1426 -24.7258,8.0557 z"
         id="path23822"
         style="fill:#ffffff;fill-opacity:1;stroke-width:1.86218;stroke:#ffffff;stroke-opacity:1" />
      <path
         d="m 1797.436,-490.80834 c -12.1371,-0.90583 -23.7096,-14.1453 -23.145,-26.47943 0.6775,-14.80074 13.2663,-23.76214 25.4034,-22.85642 14.5646,1.08695 23.8224,11.67859 23.1449,26.4793 -0.5646,12.33394 -10.8388,23.94338 -25.4033,22.85655 z"
         id="path23824"
         style="fill:#ffffff;fill-opacity:1;stroke-width:1.86218;stroke:#ffffff;stroke-opacity:1" />
      <path
         d="m 1732.5225,-1201.0893 c -14.1128,-10.9541 -18.1772,-28.5837 -10.3303,-40.3743 23.4277,-32.9046 37.6533,-24.4174 35.6207,19.9848 -0.9034,19.7343 -13.4922,28.6957 -25.2904,20.3895 z"
         id="path23826"
         style="fill:#ffffff;fill-opacity:1;stroke-width:1.86218;stroke:#ffffff;stroke-opacity:1" />
      <path
         d="m 1630.9046,-577.49247 c -12.137,-0.90569 -23.7094,-14.14541 -23.1449,-26.47939 0.6777,-14.80069 13.2663,-23.76224 25.4033,-22.85634 14.5646,1.08683 23.8225,11.67868 23.145,26.47933 -0.5646,12.33383 -10.8389,23.94339 -25.4034,22.8564 z"
         id="path23828"
         style="fill:#ffffff;fill-opacity:1;stroke-width:1.86218;stroke:#ffffff;stroke-opacity:1" />
      <path
         d="m 1581.796,-1100.9526 c -12.1371,-0.9058 -23.7096,-14.1454 -23.1449,-26.4795 0.6775,-14.8007 13.2664,-23.762 25.4034,-22.8563 14.5646,1.0869 23.8223,11.6787 23.145,26.4793 -0.5646,12.3341 -10.839,23.9434 -25.4035,22.8565 z"
         id="path23830"
         style="fill:#ffffff;fill-opacity:1;stroke-width:1.86218;stroke:#ffffff;stroke-opacity:1" />
      <path
         d="m 1540.5834,-732.74573 c -12.137,-0.9058 -23.7096,-14.14551 -23.1449,-26.47939 0.6775,-14.80068 13.2664,-23.7621 25.4034,-22.85641 14.5646,1.08693 23.8224,11.67863 23.1448,26.47936 -0.5645,12.33387 -10.8386,23.94331 -25.4033,22.85644 z"
         id="path23832"
         style="fill:#ffffff;fill-opacity:1;stroke-width:1.86218;stroke:#ffffff;stroke-opacity:1" />
      <path
         d="m 1525.343,-931.90042 c -12.1369,-0.90576 -23.7094,-14.14532 -23.1449,-26.4793 0.6775,-14.80077 13.2665,-23.76219 25.4035,-22.8564 14.5644,1.08689 23.8225,11.67861 23.1448,26.4794 -0.5646,12.33393 -10.8388,23.94322 -25.4034,22.8563 z"
         id="path23834"
         style="fill:#ffffff;fill-opacity:1;stroke-width:1.86218;stroke:#ffffff;stroke-opacity:1" />
    </g>
  </g>
</svg>
